<svg width="661" height="567" viewBox="0 0 661 567" fill="none" xmlns="http://www.w3.org/2000/svg">
<g clip-path="url(#clip0_29_222)">
<rect width="661" height="566.28" fill="#F5F5F5"/>
<path d="M589.538 303.414C586.658 342.133 572.155 379.549 551.466 410.493C550.601 411.788 549.726 413.07 548.841 414.34C546.848 417.198 544.804 420.002 542.709 422.752C540.145 426.141 537.507 429.451 534.794 432.684C532.585 435.344 530.325 437.947 528.014 440.494C526.23 442.482 524.425 444.429 522.6 446.337C500.645 469.426 475.423 488.479 449.437 505.143C398.724 537.649 343.137 562.278 285.318 565.863C227.5 569.448 167.156 550.171 124.759 504.28C67.6207 442.436 51.673 339.285 74.8719 252.582C90.3014 194.898 121.793 142.716 164.654 108.635C207.143 74.8507 260.744 59.643 311.474 69.5834C351.97 40.9395 404.986 40.3913 449.012 61.5934C472.504 72.909 493.586 89.7334 512.082 110.064C520.552 119.394 528.477 129.372 535.805 139.93C536.554 141 537.296 142.078 538.029 143.166C541.102 147.686 544.076 152.3 546.948 157.007C551.073 163.757 554.988 170.656 558.694 177.705C559.714 179.647 560.725 181.597 561.714 183.565C562.375 184.886 563.05 186.216 563.706 187.555C563.721 187.582 563.731 187.613 563.737 187.644C574.015 208.685 582.417 231.135 586.796 254.602C587.568 258.755 588.217 262.925 588.719 267.13V267.139C589.159 270.707 589.492 274.293 589.715 277.897C590.243 286.394 590.184 294.926 589.538 303.412L589.538 303.414Z" fill="#090814"/>
<path opacity="0.191" d="M589.538 303.414C586.658 342.133 572.155 379.549 551.466 410.493C550.601 411.788 549.726 413.07 548.841 414.34C546.848 417.198 544.804 420.002 542.709 422.752C540.145 426.141 537.507 429.451 534.794 432.684C532.585 435.344 530.325 437.947 528.014 440.494C526.23 442.482 524.425 444.429 522.6 446.337C500.645 469.426 475.423 488.479 449.437 505.143C398.724 537.649 343.137 562.278 285.318 565.863C227.5 569.448 167.156 550.171 124.759 504.28C67.6207 442.436 51.673 339.285 74.8719 252.582C90.3014 194.898 121.793 142.716 164.654 108.635C207.143 74.8507 260.744 59.643 311.474 69.5834C351.97 40.9395 404.986 40.3913 449.012 61.5934C472.504 72.909 493.586 89.7334 512.082 110.064C520.552 119.394 528.477 129.372 535.805 139.93C536.554 141 537.296 142.078 538.029 143.166C541.102 147.686 544.076 152.3 546.948 157.007C551.073 163.757 554.988 170.656 558.694 177.705C559.714 179.647 560.725 181.597 561.714 183.565C562.375 184.886 563.05 186.216 563.706 187.555C563.721 187.582 563.731 187.613 563.737 187.644C574.015 208.685 582.417 231.135 586.796 254.602C587.568 258.755 588.217 262.925 588.719 267.13V267.139C589.159 270.707 589.492 274.293 589.715 277.897C590.243 286.394 590.184 294.926 589.538 303.412L589.538 303.414Z" fill="black"/>
<path opacity="0.3" d="M438.672 361.948L324.023 250.791L435.404 366.4C435.62 366.823 435.919 367.18 436.277 367.441C436.635 367.702 437.041 367.86 437.462 367.902C437.883 367.944 438.306 367.869 438.697 367.682C439.088 367.496 439.435 367.203 439.709 366.83C439.984 366.456 440.178 366.011 440.275 365.533C440.372 365.055 440.37 364.556 440.269 364.079C440.168 363.602 439.97 363.159 439.692 362.789C439.415 362.418 439.066 362.13 438.673 361.948L438.672 361.948Z" fill="#F0F0F0"/>
<path d="M175.751 305.382C213.709 305.382 244.481 269.569 244.481 225.392C244.481 181.214 213.709 145.402 175.751 145.402C137.792 145.402 107.02 181.214 107.02 225.392C107.02 269.569 137.792 305.382 175.751 305.382Z" fill="#F2F2F2"/>
<path d="M236.759 219.999C236.75 234.768 232.884 249.185 225.674 261.339C218.463 273.492 208.249 282.808 196.386 288.051C184.523 293.294 171.57 294.217 159.246 290.697C146.921 287.177 135.807 279.381 127.377 268.342C118.947 257.302 113.599 243.542 112.042 228.884C110.485 214.227 112.793 199.365 118.66 186.269C124.526 173.173 133.674 162.461 144.891 155.555C156.108 148.648 168.864 145.872 181.467 147.595C196.711 149.668 210.768 158.19 220.963 171.54C231.158 184.891 236.78 202.138 236.759 219.999Z" fill="white"/>
<path d="M163.394 218.201C174.057 218.201 182.7 208.141 182.7 195.732C182.7 183.323 174.057 173.264 163.394 173.264C152.732 173.264 144.088 183.323 144.088 195.732C144.088 208.141 152.732 218.201 163.394 218.201Z" fill="#E4E4E4"/>
<path d="M234.318 199.804C230.134 202.144 225.366 202.651 220.887 201.233C216.408 199.815 212.518 196.566 209.93 192.082C207.341 187.598 206.227 182.179 206.791 176.817C207.356 171.455 209.561 166.509 213.004 162.886C223.242 172.306 230.694 185.215 234.318 199.807V199.804Z" fill="#F2F2F2"/>
<path d="M195.057 252.356C198.896 252.356 202.008 248.734 202.008 244.267C202.008 239.799 198.896 236.177 195.057 236.177C191.219 236.177 188.107 239.799 188.107 244.267C188.107 248.734 191.219 252.356 195.057 252.356Z" fill="#E4E4E4"/>
<path d="M166.483 290.104C166.482 290.814 166.402 291.521 166.243 292.207C161.632 291.536 157.101 290.258 152.737 288.397C153.098 286.444 154.068 284.717 155.459 283.546C156.85 282.376 158.563 281.846 160.27 282.058C161.976 282.27 163.555 283.209 164.702 284.695C165.849 286.181 166.484 288.108 166.483 290.105V290.104Z" fill="#F2F2F2"/>
<path d="M125.554 216.405C125.554 220.509 124.214 224.459 121.805 227.456C119.396 230.453 116.099 232.273 112.581 232.547C110.989 221.864 111.453 210.903 113.94 200.454C117.184 201.084 120.132 203.032 122.259 205.953C124.385 208.874 125.553 212.577 125.554 216.405Z" fill="#F2F2F2"/>
<path d="M468.337 190.704C469.916 190.704 471.196 189.215 471.196 187.377C471.196 185.539 469.916 184.049 468.337 184.049C466.758 184.049 465.478 185.539 465.478 187.377C465.478 189.215 466.758 190.704 468.337 190.704Z" fill="#5233DD"/>
<path d="M441.961 109.748C442.883 109.748 443.631 108.878 443.631 107.804C443.631 106.731 442.883 105.86 441.961 105.86C441.038 105.86 440.291 106.731 440.291 107.804C440.291 108.878 441.038 109.748 441.961 109.748Z" fill="#F0F0F0"/>
<path d="M173.99 490.824C174.912 490.824 175.66 489.954 175.66 488.88C175.66 487.807 174.912 486.937 173.99 486.937C173.067 486.937 172.32 487.807 172.32 488.88C172.32 489.954 173.067 490.824 173.99 490.824Z" fill="#F0F0F0"/>
<path d="M451.443 299.967C452.366 299.967 453.114 299.097 453.114 298.024C453.114 296.95 452.366 296.08 451.443 296.08C450.521 296.08 449.773 296.95 449.773 298.024C449.773 299.097 450.521 299.967 451.443 299.967Z" fill="#F0F0F0"/>
<path d="M235.889 318.329C237.468 318.329 238.748 316.839 238.748 315.001C238.748 313.163 237.468 311.673 235.889 311.673C234.31 311.673 233.03 313.163 233.03 315.001C233.03 316.839 234.31 318.329 235.889 318.329Z" fill="#5233DD"/>
<path d="M132.408 390.034C139.865 390.034 145.91 382.998 145.91 374.32C145.91 365.642 139.865 358.606 132.408 358.606C124.951 358.606 118.906 365.642 118.906 374.32C118.906 382.998 124.951 390.034 132.408 390.034Z" fill="#5233DD"/>
<path d="M206.424 393.757C207.346 393.757 208.094 392.887 208.094 391.814C208.094 390.74 207.346 389.87 206.424 389.87C205.501 389.87 204.754 390.74 204.754 391.814C204.754 392.887 205.501 393.757 206.424 393.757Z" fill="#F0F0F0"/>
<path d="M376.32 89.9758C377.242 89.9758 377.99 89.1056 377.99 88.0321C377.99 86.9587 377.242 86.0885 376.32 86.0885C375.397 86.0885 374.65 86.9587 374.65 88.0321C374.65 89.1056 375.397 89.9758 376.32 89.9758Z" fill="#F0F0F0"/>
<path d="M276.699 504.305C277.621 504.305 278.369 503.435 278.369 502.362C278.369 501.288 277.621 500.418 276.699 500.418C275.776 500.418 275.029 501.288 275.029 502.362C275.029 503.435 275.776 504.305 276.699 504.305Z" fill="#F0F0F0"/>
<path d="M251.987 107.95C252.909 107.95 253.657 107.08 253.657 106.007C253.657 104.933 252.909 104.063 251.987 104.063C251.064 104.063 250.317 104.933 250.317 106.007C250.317 107.08 251.064 107.95 251.987 107.95Z" fill="#F0F0F0"/>
<path d="M295.233 202.321C296.155 202.321 296.903 201.451 296.903 200.377C296.903 199.304 296.155 198.434 295.233 198.434C294.311 198.434 293.563 199.304 293.563 200.377C293.563 201.451 294.311 202.321 295.233 202.321Z" fill="#F0F0F0"/>
<path d="M229.035 433.883C229.957 433.883 230.705 433.013 230.705 431.94C230.705 430.866 229.957 429.996 229.035 429.996C228.113 429.996 227.365 430.866 227.365 431.94C227.365 433.013 228.113 433.883 229.035 433.883Z" fill="#F0F0F0"/>
<path d="M424.415 446.466C425.337 446.466 426.085 445.596 426.085 444.523C426.085 443.449 425.337 442.579 424.415 442.579C423.492 442.579 422.745 443.449 422.745 444.523C422.745 445.596 423.492 446.466 424.415 446.466Z" fill="#F0F0F0"/>
<path d="M337.923 333.221C338.845 333.221 339.593 332.351 339.593 331.277C339.593 330.204 338.845 329.334 337.923 329.334C337 329.334 336.253 330.204 336.253 331.277C336.253 332.351 337 333.221 337.923 333.221Z" fill="#F0F0F0"/>
<path d="M381.941 202.002C382.863 202.002 383.611 201.132 383.611 200.058C383.611 198.985 382.863 198.115 381.941 198.115C381.018 198.115 380.271 198.985 380.271 200.058C380.271 201.132 381.018 202.002 381.941 202.002Z" fill="#F0F0F0"/>
<path d="M461.97 266.881C463.799 266.881 465.282 265.156 465.282 263.027C465.282 260.898 463.799 259.172 461.97 259.172C460.14 259.172 458.658 260.898 458.658 263.027C458.658 265.156 460.14 266.881 461.97 266.881Z" fill="#FF6584"/>
<path d="M327.598 139.257C329.428 139.257 330.91 137.531 330.91 135.403C330.91 133.274 329.428 131.548 327.598 131.548C325.769 131.548 324.286 133.274 324.286 135.403C324.286 137.531 325.769 139.257 327.598 139.257Z" fill="#5233DD"/>
<path d="M327.598 404.392C329.428 404.392 330.91 402.666 330.91 400.538C330.91 398.409 329.428 396.683 327.598 396.683C325.769 396.683 324.286 398.409 324.286 400.538C324.286 402.666 325.769 404.392 327.598 404.392Z" fill="#FF6584"/>
<path d="M554.979 478.979C545.008 478.979 534.079 478.541 522.192 477.664C460.712 473.119 381.073 457.322 297.949 433.182C214.825 409.042 138.147 379.441 82.0388 349.836C54.7065 335.411 33.7298 321.762 19.691 309.259C4.82747 296.023 -1.67421 284.486 0.366038 274.969C4.34159 256.429 39.5431 252.369 68.3743 252.235L68.3842 254.928C28.7923 255.12 5.43484 262.466 2.61535 275.619C-0.976774 292.373 28.3213 318.527 82.9965 347.378C138.981 376.919 215.519 406.463 298.508 430.567C381.496 454.672 460.994 470.436 522.339 474.973C582.249 479.401 618.672 472.333 622.264 455.579C625.246 441.669 605.585 421.178 566.899 397.875L567.964 395.481C596.071 412.407 628.701 436.69 624.509 456.227C622.468 465.748 612.072 472.373 593.604 475.931C583.085 477.963 570.154 478.979 554.979 478.979Z" fill="#5233DD"/>
<path d="M185.39 511.717C157.898 511.717 132.338 510.62 109.46 508.405C79.554 505.508 55.8552 500.853 39.0225 494.567C21.2015 487.911 11.7473 479.587 10.9218 469.826C9.3129 450.81 41.2975 433.224 68.4123 421.819L69.1998 424.356C31.9647 440.016 12.0861 456.07 13.2273 469.562C14.6808 486.746 49.8262 499.924 109.652 505.717C170.911 511.649 251.528 509.548 336.649 499.794C421.77 490.04 501.197 473.814 560.287 454.096C617.998 434.839 650.262 413.935 648.805 396.756C647.598 382.489 623.164 370.878 580.003 364.057L580.315 361.386C611.675 366.34 649.415 376.45 651.11 396.489C651.937 406.25 644.057 416.56 627.693 427.131C612.241 437.116 589.773 447.059 560.925 456.685C501.709 476.447 422.138 492.711 336.881 502.478C283.395 508.604 231.665 511.717 185.39 511.717Z" fill="#5233DD"/>
<path d="M647.499 406.212C654.956 406.212 661.001 399.176 661.001 390.498C661.001 381.82 654.956 374.785 647.499 374.785C640.042 374.785 633.998 381.82 633.998 390.498C633.998 399.176 640.042 406.212 647.499 406.212Z" fill="#5233DD"/>
<path d="M255.968 31.4271C263.425 31.4271 269.47 24.3919 269.47 15.7136C269.47 7.0352 263.425 0 255.968 0C248.511 0 242.466 7.0352 242.466 15.7136C242.466 24.3919 248.511 31.4271 255.968 31.4271Z" fill="#E6E6E6"/>
<path d="M15.0254 405.313C22.4822 405.313 28.5271 398.278 28.5271 389.6C28.5271 380.922 22.4822 373.886 15.0254 373.886C7.56865 373.886 1.52374 380.922 1.52374 389.6C1.52374 398.278 7.56865 405.313 15.0254 405.313Z" fill="#E6E6E6"/>
<path d="M98.4286 107.119C102.993 107.119 106.694 102.813 106.694 97.5002C106.694 92.1877 102.993 87.8811 98.4286 87.8811C93.8639 87.8811 90.1635 92.1877 90.1635 97.5002C90.1635 102.813 93.8639 107.119 98.4286 107.119Z" fill="#5233DD"/>
<path d="M59.816 472.019C64.3807 472.019 68.0811 467.713 68.0811 462.4C68.0811 457.088 64.3807 452.781 59.816 452.781C55.2513 452.781 51.5509 457.088 51.5509 462.4C51.5509 467.713 55.2513 472.019 59.816 472.019Z" fill="#FF6584"/>
<path d="M623.56 314.734C628.124 314.734 631.825 310.427 631.825 305.115C631.825 299.802 628.124 295.495 623.56 295.495C618.995 295.495 615.295 299.802 615.295 305.115C615.295 310.427 618.995 314.734 623.56 314.734Z" fill="#FF6584"/>
<path d="M498.455 553.61C505.912 553.61 511.957 546.575 511.957 537.896C511.957 529.218 505.912 522.183 498.455 522.183C490.999 522.183 484.954 529.218 484.954 537.896C484.954 546.575 490.999 553.61 498.455 553.61Z" fill="#E6E6E6"/>
<path d="M501.919 358.606C503.498 358.606 504.778 357.117 504.778 355.279C504.778 353.441 503.498 351.951 501.919 351.951C500.34 351.951 499.06 353.441 499.06 355.279C499.06 357.117 500.34 358.606 501.919 358.606Z" fill="#5233DD"/>
<path d="M565.889 315.867C566.811 315.867 567.559 314.996 567.559 313.923C567.559 312.85 566.811 311.979 565.889 311.979C564.967 311.979 564.219 312.85 564.219 313.923C564.219 314.996 564.967 315.867 565.889 315.867Z" fill="#F0F0F0"/>
<path d="M500.249 296.095C501.171 296.095 501.919 295.224 501.919 294.151C501.919 293.077 501.171 292.207 500.249 292.207C499.326 292.207 498.578 293.077 498.578 294.151C498.578 295.224 499.326 296.095 500.249 296.095Z" fill="#F0F0F0"/>
<path d="M500.249 225.982C501.171 225.982 501.919 225.112 501.919 224.039C501.919 222.965 501.171 222.095 500.249 222.095C499.326 222.095 498.578 222.965 498.578 224.039C498.578 225.112 499.326 225.982 500.249 225.982Z" fill="#F0F0F0"/>
<path d="M505.869 408.12C506.792 408.12 507.539 407.249 507.539 406.176C507.539 405.102 506.792 404.232 505.869 404.232C504.947 404.232 504.199 405.102 504.199 406.176C504.199 407.249 504.947 408.12 505.869 408.12Z" fill="#F0F0F0"/>
<path d="M532.613 162.918C534.442 162.918 535.925 161.193 535.925 159.064C535.925 156.935 534.442 155.209 532.613 155.209C530.784 155.209 529.301 156.935 529.301 159.064C529.301 161.193 530.784 162.918 532.613 162.918Z" fill="#FF6584"/>
<path opacity="0.3" d="M188.888 106.377L242.439 54.4565L190.415 108.457C190.314 108.653 190.174 108.819 190.007 108.94C189.84 109.061 189.651 109.134 189.455 109.153C189.259 109.172 189.062 109.137 188.88 109.05C188.699 108.963 188.537 108.827 188.409 108.653C188.282 108.479 188.191 108.272 188.146 108.05C188.1 107.827 188.101 107.595 188.148 107.373C188.194 107.151 188.286 106.944 188.415 106.771C188.543 106.598 188.705 106.464 188.888 106.378V106.377Z" fill="#F0F0F0"/>
<path opacity="0.3" d="M185.146 425.569L125.092 493.545L187.09 427.955C187.305 427.84 187.494 427.666 187.64 427.449C187.787 427.231 187.886 426.977 187.931 426.705C187.976 426.434 187.965 426.155 187.898 425.89C187.832 425.625 187.712 425.382 187.549 425.182C187.385 424.981 187.183 424.829 186.959 424.738C186.735 424.647 186.496 424.619 186.261 424.657C186.026 424.695 185.802 424.797 185.608 424.956C185.414 425.115 185.256 425.325 185.146 425.569Z" fill="#F0F0F0"/>
<path d="M244.788 541.224C246.367 541.224 247.647 539.734 247.647 537.896C247.647 536.059 246.367 534.569 244.788 534.569C243.208 534.569 241.928 536.059 241.928 537.896C241.928 539.734 243.208 541.224 244.788 541.224Z" fill="#5233DD"/>
<path d="M334.222 523.635C336.051 523.635 337.534 521.909 337.534 519.78C337.534 517.651 336.051 515.926 334.222 515.926C332.393 515.926 330.91 517.651 330.91 519.78C330.91 521.909 332.393 523.635 334.222 523.635Z" fill="#5233DD"/>
<path d="M359.553 541.854C360.476 541.854 361.223 540.984 361.223 539.91C361.223 538.837 360.476 537.966 359.553 537.966C358.631 537.966 357.883 538.837 357.883 539.91C357.883 540.984 358.631 541.854 359.553 541.854Z" fill="#F0F0F0"/>
<path d="M359.553 471.74C360.476 471.74 361.223 470.87 361.223 469.797C361.223 468.723 360.476 467.853 359.553 467.853C358.631 467.853 357.883 468.723 357.883 469.797C357.883 470.87 358.631 471.74 359.553 471.74Z" fill="#F0F0F0"/>
</g>
<defs>
<clipPath id="clip0_29_222">
<rect width="661" height="566.28" fill="white"/>
</clipPath>
</defs>
</svg>
