<svg width="708" height="662" viewBox="0 0 708 662" fill="none" xmlns="http://www.w3.org/2000/svg">
<rect width="708" height="662" fill="#F5F5F5"/>
<g clip-path="url(#clip0_49_86)">
<rect width="688" height="642" transform="translate(10 10)" fill="#F5F5F5"/>
<path d="M97.8793 85.248C115.799 85.248 130.327 72.5211 130.327 56.8217C130.327 41.1223 115.799 28.3954 97.8793 28.3954C79.9592 28.3954 65.432 41.1223 65.432 56.8217C65.432 72.5211 79.9592 85.248 97.8793 85.248Z" fill="#FF6584"/>
<path d="M542.204 159.595L542.022 159.75V159.595L542.017 159.754C539.53 161.873 511.839 185.809 501.096 210.091C497.53 206.615 495.008 204.497 495.008 204.497L494.888 204.598V204.497V204.601C492.861 206.327 465.295 230.158 465.295 249.043C465.295 267.276 476.802 274.471 491.613 275.39L490.538 293.372H493.54L493.872 275.478C494.249 275.486 494.628 275.491 495.009 275.491C505.956 275.491 515.509 272.44 520.666 264.597C525.893 266.404 531.415 267.472 537.024 267.76L535.382 295.2H539.962L540.468 267.9C541.045 267.911 541.622 267.919 542.201 267.919C567.24 267.919 587.541 257.475 587.541 227.559C587.541 197.643 542.204 159.595 542.204 159.595Z" fill="#F2F2F2"/>
<path d="M428.388 179.399V163.66H362.21V179.399H331.485V117.141H301.94V93.0244H235.763V117.144H205.037V214.876C200.531 210.771 195.753 206.901 190.728 203.287L190.584 203.389V203.287V203.391C188.148 205.118 155.018 228.949 155.018 247.834C155.018 266.067 168.848 273.262 186.649 274.181L185.357 292.163H188.964L189.363 274.269C189.819 274.276 190.275 274.282 190.731 274.282C195.553 274.329 200.362 273.834 205.04 272.808V296.317H457.931V179.399H428.388Z" fill="#C2C8B6"/>
<path d="M130.327 329.07C199.022 329.07 254.71 324.572 254.71 319.025C254.71 313.478 199.022 308.981 130.327 308.981C61.633 308.981 5.94519 313.478 5.94519 319.025C5.94519 324.572 61.633 329.07 130.327 329.07Z" fill="#F2F2F2"/>
<path d="M271.424 207.251C271.424 256.717 237.858 273.985 196.451 273.985C155.044 273.985 121.478 256.713 121.478 207.251C121.478 157.788 196.451 94.8553 196.451 94.8553C196.451 94.8553 271.424 157.784 271.424 207.251Z" fill="#E0F9A8"/>
<path d="M193.717 266.423L194.485 225.024L226.441 173.807L194.603 218.529L194.947 199.914L216.98 162.861L195.047 194.989L195.668 161.509L219.252 132.01L195.766 156.244L196.154 94.8553L193.717 176.125L193.918 172.772L169.94 140.618L193.533 179.207L191.298 216.597L191.232 215.605L163.59 181.769L191.148 219.111L190.869 223.786L190.819 223.857L190.841 224.241L185.174 319.107H192.745L193.658 270.109L221.148 232.858L193.717 266.423Z" fill="#3F3D56"/>
<path d="M139.947 207.251C139.947 256.717 106.38 273.985 64.9733 273.985C23.5666 273.985 -10 256.713 -10 207.251C-10 157.788 64.9733 94.8553 64.9733 94.8553C64.9733 94.8553 139.947 157.784 139.947 207.251Z" fill="#D9E9B3"/>
<path d="M62.2426 266.423L63.0108 225.024L94.9654 173.807L63.1275 218.529L63.4724 199.914L85.4962 162.859L63.5636 194.988L64.1848 161.508L87.7668 132.008L64.2861 156.245L64.6738 94.8561L62.2353 176.125L62.436 172.772L38.4582 140.618L62.0511 179.207L59.8169 216.597L59.7503 215.605L32.1097 181.771L59.6673 219.113L59.3882 223.789L59.338 223.859L59.3608 224.243L53.6929 319.11H61.2647L62.177 270.111L89.667 232.861L62.2426 266.423Z" fill="#3F3D56"/>
<path d="M240.944 164.276C240.944 231.169 195.553 254.522 139.562 254.522C83.5713 254.522 38.1799 231.164 38.1799 164.276C38.1799 97.3872 153.796 10 153.796 10C153.796 10 240.944 97.3856 240.944 164.276Z" fill="#C0E960"/>
<path d="M135.869 244.291L136.907 188.309L180.118 119.052L137.07 179.528L137.536 154.353L167.318 104.246L137.66 147.691L138.5 102.419L170.389 62.5281L138.631 95.3005L139.155 12.2914L135.862 122.183L136.136 117.649L103.713 74.1718L135.617 126.353L132.595 176.914L132.504 175.572L95.1261 129.817L132.391 180.313L132.012 186.636L131.945 186.731L131.977 187.25L124.314 315.528H134.549L135.776 249.273L172.95 198.901L135.869 244.291Z" fill="#3F3D56"/>
<path d="M306.473 512.767L256.065 552.391C233.463 543.709 218.456 528.933 210.839 508.229L261.248 468.608C261.564 494.642 276.956 509.123 306.473 512.767Z" fill="#E6E6E6"/>
<path d="M255.68 486.453L221.63 511.93L222.268 512.584L256.319 487.107L255.68 486.453Z" fill="#3F3D56"/>
<path d="M259.089 491.789L226.278 517.724L226.936 518.363L259.747 492.428L259.089 491.789Z" fill="#3F3D56"/>
<path d="M432.508 498.831L365.16 505.075C352.647 486.439 350.364 466.762 358.033 446.073L425.381 439.83C408.231 461.093 411.02 480.727 432.508 498.831Z" fill="#5233DD"/>
<path d="M408.938 451.433L364.306 454.607L364.386 455.465L409.017 452.291L408.938 451.433Z" fill="white"/>
<path d="M408.139 457.509L364.206 461.69L364.312 462.546L408.245 458.364L408.139 457.509Z" fill="white"/>
<path d="M363.568 390.953L318.549 346.631C328.551 326.865 345.477 313.778 369.14 307.189L414.162 351.511C384.441 351.683 367.849 365.105 363.568 390.953Z" fill="#E6E6E6"/>
<path d="M364.871 316.624L364.121 317.18L393.048 347.112L393.797 346.556L364.871 316.624Z" fill="#3F3D56"/>
<path d="M358.243 320.678L357.511 321.252L386.987 350.095L387.719 349.521L358.243 320.678Z" fill="#3F3D56"/>
<path d="M505.574 652C600.803 652 678.001 647.388 678.001 641.699C678.001 636.01 600.803 631.398 505.574 631.398C410.346 631.398 333.148 636.01 333.148 641.699C333.148 647.388 410.346 652 505.574 652Z" fill="#F2F2F2"/>
<path d="M397.974 210.247L359.385 229.765L414.258 313.029L452.847 293.511L397.974 210.247Z" fill="#5233DD"/>
<path d="M404.751 230.4L374.038 246.519L374.462 247.139L405.175 231.02L404.751 230.4Z" fill="#090814"/>
<path d="M409.702 236.376L378.989 252.496L379.413 253.115L410.126 236.996L409.702 236.376Z" fill="#090814"/>
<path d="M415.478 241.437L384.764 257.556L385.188 258.176L415.901 242.057L415.478 241.437Z" fill="#090814"/>
<path d="M420.428 247.943L389.715 264.062L390.139 264.682L420.852 248.563L420.428 247.943Z" fill="#090814"/>
<path d="M425.38 257.34L394.666 273.46L395.09 274.08L425.804 257.96L425.38 257.34Z" fill="#090814"/>
<path d="M537.929 315.74C537.929 315.74 559.17 306.789 574.284 310.127L537.929 224.228V215.408L589.387 322.67C602.25 343.916 618.519 392.339 590.787 396.226C559.324 400.636 502.691 417.174 502.691 417.174L490.102 321.252L537.929 315.74Z" fill="#2F2E41"/>
<path d="M413.966 287.074C413.966 287.074 379.986 249.591 371.181 262.818C362.376 276.045 410.745 298.303 410.745 298.303L413.966 287.074Z" fill="#ED9DA0"/>
<path d="M425.293 288.176L411.449 281.56C411.449 281.56 402.639 301.406 402.639 304.714C402.639 308.022 416.483 309.124 416.483 309.124L425.293 288.176Z" fill="#E6E6E6"/>
<path d="M480.625 207.997C498.696 207.997 513.346 195.163 513.346 179.331C513.346 163.499 498.696 150.665 480.625 150.665C462.553 150.665 447.904 163.499 447.904 179.331C447.904 195.163 462.553 207.997 480.625 207.997Z" fill="#ED9DA0"/>
<path d="M503.32 172.409C503.32 172.409 517.164 208.793 527.231 210.998C537.299 213.203 488.218 229.741 488.218 229.741C488.218 229.741 473.115 198.87 465.564 191.152C458.014 183.434 503.32 172.409 503.32 172.409Z" fill="#ED9DA0"/>
<path opacity="0.1" d="M581.977 385.2C609.104 381.398 594.131 334.979 581.423 313.07C582.575 313.839 583.607 314.737 584.494 315.739C597.083 330.073 622.249 391.816 590.789 396.226C559.328 400.636 502.693 417.174 502.693 417.174L500.981 404.123C517.162 399.573 557.306 388.659 581.977 385.2Z" fill="black"/>
<path d="M625.395 574.839C625.395 574.839 656.858 596.89 654.341 599.095C651.824 601.3 625.395 636.578 602.743 639.889C580.091 643.2 570.022 643.197 570.022 639.889C570.022 636.581 576.317 628.86 587.641 625.556C598.966 622.252 600.231 600.197 598.968 595.787C597.705 591.377 625.395 574.839 625.395 574.839Z" fill="#090814"/>
<path d="M531.007 410.559L551.147 493.25C551.147 493.25 634.209 574.839 631.692 575.942C629.175 577.044 604.005 599.095 598.971 599.095C593.937 599.095 507.1 513.1 507.1 513.1L475.633 441.433L531.007 410.559Z" fill="black"/>
<path d="M551.143 384.098C551.143 384.098 541.075 421.581 513.388 446.943C485.701 472.306 473.115 524.122 473.115 524.122L445.428 627.761C445.428 627.761 396.348 622.246 398.863 611.223L425.293 519.713C425.293 519.713 455.497 392.92 471.857 384.1C488.218 375.28 551.143 384.098 551.143 384.098Z" fill="black"/>
<path d="M442.911 618.941C442.911 618.941 450.462 639.889 445.428 642.094C440.394 644.299 351.04 648.709 346.006 633.274C346.006 633.274 343.489 625.556 363.625 625.556C383.762 625.556 405.156 609.014 405.156 609.014L442.911 618.941Z" fill="#090814"/>
<path d="M480.667 225.33C480.667 225.33 513.388 196.664 522.197 198.869C531.007 201.074 531.007 212.1 531.007 212.1C531.007 212.1 558.694 215.408 556.177 294.791C553.66 374.175 578.831 382.993 570.021 387.405C561.211 391.818 460.53 411.661 456.755 391.815C452.981 371.97 454.239 295.893 464.31 271.637C474.381 247.381 486.96 231.942 480.667 225.33Z" fill="#090814"/>
<path d="M522.198 231.946C522.198 231.946 559.953 247.382 538.559 277.15C517.165 306.919 500.803 338.893 478.151 337.79C455.498 336.686 420.259 317.945 410.187 317.945C400.116 317.945 413.963 285.971 421.514 284.869C429.065 283.767 464.299 302.51 464.299 302.51C464.299 302.51 476.892 227.536 522.198 231.946Z" fill="#090814"/>
<path d="M499.501 182.498C496.71 182.352 493.985 183.179 491.213 183.501C481.295 184.655 470.979 178.35 468.788 169.798C468.613 168.658 468.226 167.551 467.642 166.521C466.115 164.338 462.639 163.922 459.773 164.424C456.908 164.926 454.191 166.103 451.273 166.235C446.767 166.442 442.441 164.012 440.04 160.666C437.639 157.319 436.959 153.201 437.283 149.258L439.444 151.244C440.321 149.618 440.66 147.808 440.421 146.021C441.566 145.754 442.77 145.748 443.918 146.006C445.065 146.263 446.118 146.774 446.976 147.49C448.881 147.667 447.443 144.394 448.858 143.264C449.546 142.893 450.367 142.759 451.162 142.886C455.214 142.921 458.492 140.206 461.685 138.02C467.216 134.242 473.685 131.656 480.568 130.473C485.143 129.691 490.009 129.566 494.348 131.058C497.911 132.284 500.894 134.516 503.653 136.841C510.447 142.564 516.462 149.288 519.288 157.165C521.584 163.617 521.648 170.52 519.471 177.004C518.332 180.371 514.9 191.903 509.876 192.172C503.569 192.512 507.36 182.909 499.501 182.498Z" fill="#090814"/>
</g>
<defs>
<clipPath id="clip0_49_86">
<rect width="688" height="642" fill="white" transform="translate(10 10)"/>
</clipPath>
</defs>
</svg>
