<svg width="61" height="61" viewBox="0 0 61 61" fill="none" xmlns="http://www.w3.org/2000/svg">
<path d="M0.0978927 28.0599C0.0713441 28.0608 0.044776 28.0617 0.0181885 28.0627C0.0447787 28.0617 0.0713471 28.0608 0.0978927 28.0599C19.2269 27.3842 28.2797 24.2629 32.8921 0.09375C31.7879 20.706 37.2673 31.4453 53.2398 28.5328C59.7737 25.837 63.4762 26.0968 55.4343 28.0627C54.6818 28.2466 53.9504 28.4032 53.2398 28.5328C45.42 31.7591 33.5447 39.2187 32.8921 53.0534C31.6952 78.427 32.2344 26.9738 0.0978927 28.0599Z" fill="#F5F5F5"/>
<path d="M0.0181885 28.0627C19.2018 27.3928 28.2733 24.2965 32.8921 0.09375C31.7388 21.6231 37.7679 32.3814 55.4343 28.0627C73.1007 23.744 34.09 27.6589 32.8921 53.0534C31.6942 78.4479 32.2353 26.8887 0.0181885 28.0627Z" stroke="#4B6709"/>
</svg>
