<svg width="62" height="62" viewBox="0 0 62 62" fill="none" xmlns="http://www.w3.org/2000/svg">
<path d="M31.0899 51.4401C31.6142 49.9372 32.2672 48.3951 33.0789 47.1168C34.2424 41.7257 31.3828 34.8095 28.0937 30.782C25.48 27.5814 23.9392 24.3972 22.2829 21.3604C20.641 21.5853 18.7731 21.2786 17.6137 20.4039C16.0488 19.2233 15.8555 17.0079 16.8419 14.6097C16.3938 14.771 15.8786 14.8885 15.2882 14.9547C9.28673 15.6282 2.88506 15.7464 1.5674 13.9088C0.824719 12.873 0.495566 10.6864 2.61014 10.3474C6.79053 9.67717 11.3291 11.1541 16.6307 12.3892C16.4899 12.0782 16.3618 11.7579 16.2492 11.4263C12.7879 10.4074 9.78283 9.39217 9.06918 7.10743C8.3265 4.72977 7.8613 0.994933 10.3445 1.00001C12.8426 1.00511 17.5945 1.09598 18.0863 3.2348C18.2058 3.75454 18.3926 4.39052 18.5932 5.09507C20.4441 4.41817 23.1096 4.49011 24.7929 4.90835C26.8259 5.41347 27.321 6.42372 27.5761 7.9544C27.8311 9.48508 27.8311 11.5056 26.5933 12.5464C25.6394 13.3486 23.9502 13.5326 22.3019 13.4206C23.4897 13.9268 24.6042 14.5236 25.5656 15.266C27.2925 16.5994 26.3308 19.3223 24.5979 20.5366C23.9902 20.9624 23.1695 21.2389 22.2829 21.3604C23.9392 24.3972 25.48 27.5814 28.0937 30.782C31.3828 34.8095 34.2424 41.7257 33.0789 47.1168C33.3118 46.75 33.5578 46.405 33.8175 46.0888C34.8042 44.8877 35.813 43.5479 37.0658 42.6856C42.7321 38.7856 54.8075 40.4661 60.0738 39.7722C61.7011 39.5578 60.839 43.4662 60.0963 45.1908C57.9385 50.2013 50.3665 52.0176 44.3575 54.3953C38.3421 56.7755 32.3622 59.4874 27.3435 60.8701C24.3152 61.7044 26.4087 58.384 28.8234 54.8196C29.5988 53.6751 30.4072 52.5054 31.0899 51.4401Z" fill="#F5F5F5"/>
<path d="M21.8297 60.5282C18.844 59.171 12.8576 57.1403 7.09621 54.0789C0.481557 50.5642 2.32507 36.8129 4.56061 29.9197C6.21794 24.8094 14.808 37.0374 20.0593 40.2773C25.3623 43.5492 28.3112 48.2624 29.0839 57.0995C29.3225 59.8275 30.3217 50.3441 33.8175 46.0888C34.8042 44.8877 35.813 43.5479 37.0658 42.6856C42.7321 38.7856 54.8075 40.4661 60.0738 39.7722C61.7011 39.5578 60.839 43.4662 60.0963 45.1908C57.9385 50.2013 50.3665 52.0176 44.3575 54.3953C38.3421 56.7755 32.3622 59.4874 27.3435 60.8701C22.6309 62.1684 30.3217 53.4054 32.3247 49.3185C35.0498 43.7582 31.8521 35.3842 28.0937 30.782C24.4012 26.2604 22.8499 21.7714 20.0893 17.6844C18.6438 15.5445 16.8335 13.5975 16.0833 10.8882C15.6186 9.20982 15.8283 6.8319 17.5612 5.61756C19.2941 4.40322 22.7599 4.40322 24.7929 4.90835C26.8259 5.41347 27.321 6.42372 27.5761 7.9544C27.8311 9.48508 27.8311 11.5056 26.5933 12.5464C25.3555 13.5873 22.88 13.5873 20.862 13.2506C13.6778 12.0517 7.86139 9.50549 2.61014 10.3474C0.495566 10.6864 0.824719 12.873 1.5674 13.9088C2.88506 15.7464 9.28673 15.6282 15.2882 14.9547C22.1689 14.1825 18.829 6.46454 18.0863 3.2348C17.5945 1.09598 12.8426 1.00511 10.3445 1.00001C7.8613 0.994933 8.3265 4.72977 9.06918 7.10743C10.4424 11.5036 20.2993 11.1994 25.5656 15.266C27.2925 16.5994 26.3308 19.3223 24.5979 20.5366C22.8649 21.7509 19.3991 21.7509 17.6137 20.4039C15.8283 19.0569 15.8283 16.3629 17.3286 13.5873" stroke="#EE3056" stroke-width="2" stroke-linecap="round"/>
</svg>
