<svg width="62" height="62" viewBox="0 0 62 62" fill="none" xmlns="http://www.w3.org/2000/svg">
<path d="M13.0532 15.4189C13.3154 14.7016 13.6058 13.985 13.9255 13.2819C16.398 7.84445 19.573 5.88422 22.1848 3.29968C27.7215 -2.1793 39.1369 3.44929 41.8563 6.54455C45.4166 10.597 46.7537 15.4795 48.1656 19.6117C48.5464 20.7263 48.8255 22.6659 48.9991 25.083C51.04 26.2004 52.9364 27.1461 54.7912 28.7324C56.0319 29.7935 57.8334 31.6471 59.5714 34.7372C60.7395 36.8142 60.8854 39.2202 60.9963 41.2785C61.0526 42.3247 60.4615 43.3369 59.917 44.0333C58.0168 46.4636 53.118 48.4259 47.9908 47.9178C46.4268 53.0474 40.241 58.6075 37.8359 60.1989C35.1069 62.0046 39.867 60.1886 29.6774 60.1989C25.3141 60.2033 18.295 54.3769 16.2243 50.7655C14.1536 47.1541 11.7735 43.3782 11.0007 39.246C10.7606 37.9621 10.8385 35.9442 11.0694 33.5661C10.4067 33.1851 9.73827 32.8734 9.05413 32.6995C5.68221 31.8424 3.29582 28.5828 1.44051 24.8014C0.990749 23.8847 0.895985 22.7431 1.10793 21.8764C3.26696 18.9588 5.85595 17.5756 8.88133 16.7184C9.11269 16.5629 11.1939 15.3937 12.3316 15.5483C12.5686 15.5008 12.8092 15.4577 13.0532 15.4189Z" fill="#F5F5F5"/>
<path d="M11.1083 24.786C11.1083 22.3923 11.9691 17.5843 13.9255 13.2819C16.398 7.84445 19.573 5.88422 22.1848 3.29968C27.7215 -2.1793 39.1369 3.44929 41.8563 6.54455C45.4166 10.597 46.7537 15.4795 48.1656 19.6117C49.4924 23.4949 49.584 37.394 48.2863 46.6076C47.5179 52.0624 40.4477 58.4707 37.8359 60.1989C35.1069 62.0046 39.867 60.1886 29.6774 60.1989C25.3141 60.2033 18.295 54.3769 16.2243 50.7655C14.1536 47.1541 11.7735 43.3782 11.0007 39.246C10.229 35.1194 12.7419 23.4086 13.0647 16.5319M13.0647 16.5319C13.1819 14.0357 8.26505 17.053 8.92044 16.7073M13.0647 16.5319C11.5127 16.5319 10.0062 16.5319 8.92044 16.7073M8.92044 16.7073C17.1382 12.3735 35.2241 18.2446 37.8359 19.622C40.4477 20.9994 43.4801 21.6907 46.4212 23.5736C49.4852 25.5353 52.1795 26.4987 54.7912 28.7324C56.0319 29.7935 57.8334 31.6471 59.5714 34.7372C60.7395 36.8142 60.8854 39.2202 60.9963 41.2785C61.0526 42.3247 60.4615 43.3369 59.917 44.0333C57.6403 46.9451 51.0589 49.1852 44.9376 47.3091C34.2488 44.0333 29.6027 43.7083 26.7692 41.6448C24.1338 39.7256 20.4729 37.8686 17.0981 36.9968C14.244 36.2594 11.7735 33.3908 9.05413 32.6995C5.68221 31.8424 3.29582 28.5828 1.44051 24.8014C0.990748 23.8847 0.895983 22.7431 1.10793 21.8764C3.27626 18.9462 5.87826 17.5637 8.92044 16.7073Z" stroke="#5233DD" stroke-width="2" stroke-linecap="round"/>
</svg>
