<svg width="430" height="325" viewBox="0 0 430 325" fill="none" xmlns="http://www.w3.org/2000/svg">
<g clip-path="url(#clip0_30_277)">
<rect y="-2" width="430" height="327" rx="15" fill="#C0E960"/>
<path d="M294.062 158.272C296.367 157.774 304.829 169.717 295.865 186.537C288.24 179.05 290.776 158.983 294.062 158.272Z" fill="#090814"/>
<path d="M293.16 209.91C293.226 209.767 292.749 209.382 294.603 207.192C297.763 203.46 305.206 200.395 309.386 200.398C304.018 198.869 299.179 202.555 294.603 206.105C296.323 187.896 312.916 194.878 311.549 201.485C311.39 202.257 302.696 208.58 301.994 208.823C296.782 210.631 295.668 206.974 293.16 209.91Z" fill="#090814"/>
<path d="M301.453 245.241C301.547 245.077 301.619 244.327 303.256 241.98C306.822 236.868 313.586 232.868 318.22 237.088C321.777 240.327 313.546 247.533 312.09 247.959C309.207 248.804 304.125 247.427 301.453 245.241Z" fill="#090814"/>
<path d="M312.27 224.586C312.127 224.795 311.66 223.874 311.549 225.673C308.062 230.048 306.132 218.558 307.944 210.726C311.343 196.03 318.151 214.963 312.27 224.586Z" fill="#090814"/>
<path d="M320.563 215.889L335.346 213.443C327.552 212.922 318.492 216.3 322.727 211.541C327.191 206.524 342.142 208.867 333.003 218.064C328.355 222.741 324.7 220.202 320.563 215.889Z" fill="#090814"/>
<path d="M297.487 189.799C295.26 195.055 294.062 203.806 292.439 209.638L293.16 209.91C290.953 214.698 289.426 223.871 288.834 229.75L295.865 255.025C300.327 246.551 305.528 233.772 311.189 227.304C311.254 227.878 311.05 228.532 310.828 228.935C308.387 233.356 305.148 236.843 303.256 241.98C301.619 244.327 301.547 245.076 301.453 245.241C300.806 246.388 296.483 255.199 296.406 255.841C296.284 256.856 298.723 268.16 299.651 268.614C299.146 269.314 298.79 269.246 298.929 270.245C296.118 256.892 287.145 224.136 283.065 209.91C283.296 209.95 283.6 209.831 283.786 209.91L288.293 226.76C289.411 220.865 290.68 219.284 288.834 215.889H289.194C291.036 219.405 292.287 204.171 297.127 189.799L297.487 189.799Z" fill="#090814"/>
<path d="M322.727 211.541C318.492 216.3 327.552 212.921 335.346 213.443L320.563 215.889C320.376 215.694 320.076 215.433 319.842 215.346C320.716 214.022 321.559 212.427 322.366 210.997C322.466 210.926 322.636 211.072 322.727 210.997V211.541Z" fill="white"/>
<path d="M322.366 210.997C321.559 212.427 320.716 214.022 319.842 215.346C317.469 218.943 314.665 222.128 312.631 226.217C312.583 226.263 312.066 226.205 311.549 226.761C311.559 226.403 311.527 226.028 311.549 225.673C311.88 225.258 311.994 225.039 312.27 224.586C315.385 220.056 318.819 215.975 321.645 210.997C321.834 210.902 322.229 211.095 322.366 210.997Z" fill="#090814"/>
<path d="M294.603 207.192V206.105C299.179 202.555 304.018 198.869 309.386 200.398C305.206 200.395 297.763 203.46 294.603 207.192Z" fill="white"/>
<path d="M288.834 215.889C290.68 219.284 289.411 220.865 288.293 226.76L283.786 209.91C284.095 210.041 288.63 215.515 288.834 215.889Z" fill="white"/>
<path d="M297.487 189.799H297.127C300.669 179.279 305.592 169.947 309.386 159.631C313.774 152.084 323.191 141.25 330.118 144.683C334.745 146.977 331.332 153.493 329.037 156.642C320.822 167.913 304.994 164.805 301.273 181.645C307.591 170.359 316.721 178.444 316.958 181.917C317.344 187.591 305.251 195.897 299.47 185.994C298.636 187.049 298.061 188.445 297.487 189.799Z" fill="#090814"/>
<path d="M307.403 180.015C314.842 178.576 320.111 181.379 306.682 181.102L300.913 184.907L300.552 183.819C302.719 182.497 305.05 180.469 307.403 180.015Z" fill="white"/>
<path d="M326.332 205.018C326.972 203.477 329.384 190.487 337.33 189.255C350.334 187.239 339.177 204.558 334.806 205.562C331.638 206.289 328.634 203.612 326.332 205.018Z" fill="#090814"/>
<path d="M341.296 191.973L342.197 192.245C324.497 206.045 321.292 206.734 341.296 191.973Z" fill="white"/>
<path d="M300.191 219.151C303.05 218.185 307.984 232.772 300.191 245.242C293.064 235.987 297.728 219.984 300.191 219.151Z" fill="#090814"/>
<path d="M300.552 220.781C301.688 227.442 300.86 236.288 300.191 243.067L300.552 220.781Z" fill="white"/>
<path d="M326.332 205.018C325.475 207.086 324.148 209.829 322.727 210.997C322.636 211.072 322.466 210.926 322.366 210.997C322.229 211.095 321.834 210.902 321.645 210.997C320.348 211.655 320.082 212.86 319.662 212.628C313.224 199.579 322.719 180.419 325.251 196.05C326.579 204.254 322.722 209.876 326.332 205.018Z" fill="#090814"/>
<path d="M321.825 192.516L322.006 200.398C319.988 221.525 320.785 202.036 321.825 192.516Z" fill="white"/>
<path d="M312.27 224.586C311.994 225.039 311.88 225.258 311.549 225.673C311.66 223.874 312.127 224.795 312.27 224.586Z" fill="white"/>
<path d="M310.828 228.935C311.05 228.532 311.254 227.878 311.189 227.304C311.209 227.281 311.168 227.169 311.549 226.76C312.066 226.205 312.583 226.263 312.631 226.217C323.259 216.033 329.492 222.39 324.349 228.391C320.511 232.87 314.863 232.755 310.828 228.935Z" fill="#090814"/>
<path d="M325.791 224.043C326.081 224.225 326.082 224.944 325.791 225.13C322.61 227.168 298.818 229.293 325.791 224.043Z" fill="white"/>
<path d="M310.828 311.012L310.107 310.74C310.489 309.953 310.798 309.975 310.828 309.925C310.779 310.063 310.855 310.595 310.828 311.012Z" fill="white"/>
<path d="M309.025 311.827C308.953 312.263 308.948 313.472 309.206 313.73C309.433 313.27 310.718 311.09 310.828 311.012C312.405 309.894 317.371 308.815 319.301 308.838C320.386 308.85 331.417 311.522 331.38 312.914C327.27 319.438 313.455 321.35 308.665 316.991C313.841 313.638 319.84 315.429 325.251 312.914L307.583 315.632" fill="#090814"/>
<path d="M310.828 309.925C310.798 309.975 310.489 309.953 310.107 310.74L310.828 311.012C310.718 311.09 309.433 313.27 309.206 313.73C308.948 313.472 308.953 312.263 309.025 311.827" fill="#555758"/>
<path d="M307.944 318.078V316.719C308.175 316.069 308.385 317.172 308.665 316.991C313.455 321.35 327.27 319.438 331.38 312.914C331.417 311.522 320.386 308.85 319.301 308.838C317.371 308.815 312.405 309.894 310.828 311.012C310.855 310.595 310.78 310.063 310.828 309.925C311.672 308.515 312.931 307.412 313.713 305.848C314.018 294.312 322.691 284.211 329.397 280.573C340.83 274.37 339.199 284.179 333.904 294.433C325.66 310.399 310.857 304.87 311.91 309.653C318.716 306.612 325.892 308.845 332.462 312.371C327.494 321.442 314.748 320.983 307.944 318.078Z" fill="#090814"/>
<path d="M333.363 279.486C338.662 278.484 338.186 282.296 334.986 290.628C332.133 298.058 325.303 304.706 319.662 305.576C311.254 306.873 321.395 302.244 327.234 295.792C335.946 284.561 317.02 304.667 315.335 305.576C312.213 307.262 316.262 295.096 319.662 290.357C321.853 287.302 330.638 280.001 333.363 279.486Z" fill="#090814"/>
<path d="M152.044 131.43C149.356 130.849 139.489 144.775 149.942 164.388C158.832 155.658 155.875 132.259 152.044 131.43Z" fill="#090814"/>
<path d="M153.095 191.642C153.018 191.475 153.575 191.026 151.413 188.473C147.728 184.12 139.049 180.546 134.176 180.55C140.435 178.768 146.077 183.066 151.413 187.205C149.407 165.973 130.06 174.113 131.653 181.818C131.839 182.718 141.976 190.09 142.794 190.374C148.872 192.482 150.171 188.218 153.095 191.642Z" fill="#090814"/>
<path d="M143.425 232.839C143.316 232.647 143.232 231.772 141.323 229.036C137.165 223.076 129.278 218.412 123.875 223.332C119.728 227.109 129.324 235.51 131.022 236.008C134.384 236.993 140.31 235.387 143.425 232.839Z" fill="#090814"/>
<path d="M130.812 208.754C130.979 208.998 131.524 207.924 131.653 210.022C135.719 215.123 137.97 201.725 135.857 192.592C131.894 175.457 123.956 197.533 130.812 208.754Z" fill="#090814"/>
<path d="M121.142 198.613L103.905 195.761C112.994 195.153 123.558 199.093 118.62 193.543C113.414 187.693 95.9809 190.425 106.638 201.149C112.057 206.603 116.318 203.642 121.142 198.613Z" fill="#090814"/>
<path d="M148.05 168.191C150.647 174.321 152.044 184.524 153.936 191.325L153.095 191.642C155.669 197.224 157.449 207.92 158.14 214.776L149.942 244.247C144.739 234.366 138.674 219.465 132.074 211.923C131.997 212.592 132.235 213.355 132.494 213.825C135.34 218.981 139.117 223.046 141.323 229.036C143.232 231.772 143.316 232.647 143.425 232.839C144.18 234.176 149.221 244.45 149.311 245.198C149.453 246.382 146.609 259.563 145.527 260.093C146.116 260.909 146.531 260.829 146.368 261.994C149.647 246.424 160.109 208.229 164.867 191.642C164.597 191.688 164.243 191.55 164.026 191.642L158.771 211.29C157.466 204.415 155.987 202.572 158.14 198.614H157.72C155.572 202.713 154.113 184.95 148.47 168.191L148.05 168.191Z" fill="#090814"/>
<path d="M118.62 193.543C123.558 199.093 112.994 195.153 103.905 195.761L121.142 198.614C121.36 198.386 121.711 198.082 121.983 197.98C120.965 196.436 119.982 194.576 119.04 192.909C118.924 192.826 118.726 192.997 118.62 192.909V193.543Z" fill="white"/>
<path d="M119.04 192.909C119.982 194.576 120.965 196.436 121.983 197.98C124.75 202.174 128.02 205.888 130.392 210.656C130.448 210.709 131.05 210.642 131.653 211.289C131.641 210.872 131.679 210.436 131.653 210.022C131.267 209.538 131.135 209.282 130.812 208.754C127.181 203.472 123.176 198.713 119.881 192.909C119.661 192.797 119.2 193.023 119.04 192.909Z" fill="#090814"/>
<path d="M151.413 188.473V187.205C146.077 183.066 140.435 178.768 134.176 180.55C139.049 180.546 147.728 184.12 151.413 188.473Z" fill="white"/>
<path d="M158.14 198.613C155.987 202.572 157.466 204.415 158.771 211.29L164.026 191.642C163.666 191.795 158.377 198.177 158.14 198.613Z" fill="white"/>
<path d="M148.05 168.191H148.47C144.34 155.925 138.599 145.043 134.176 133.015C129.059 124.215 118.079 111.581 110.001 115.585C104.606 118.259 108.586 125.857 111.262 129.529C120.84 142.671 139.296 139.047 143.635 158.684C136.268 145.524 125.622 154.951 125.347 159.001C124.896 165.617 138.997 175.301 145.737 163.754C146.71 164.985 147.381 166.613 148.05 168.191Z" fill="#090814"/>
<path d="M136.488 156.783C127.813 155.105 121.67 158.374 137.329 158.05L144.056 162.487L144.476 161.219C141.95 159.677 139.231 157.313 136.488 156.783Z" fill="white"/>
<path d="M114.416 185.938C113.67 184.14 110.857 168.994 101.592 167.557C86.429 165.206 99.4383 185.401 104.535 186.571C108.229 187.419 111.732 184.298 114.416 185.938Z" fill="#090814"/>
<path d="M96.9677 170.726L95.9166 171.043C116.556 187.135 120.293 187.938 96.9677 170.726Z" fill="white"/>
<path d="M144.897 202.416C141.564 201.29 135.81 218.299 144.897 232.839C153.208 222.047 147.769 203.387 144.897 202.416Z" fill="#090814"/>
<path d="M144.476 204.318C143.152 212.084 144.117 222.399 144.897 230.304L144.476 204.318Z" fill="white"/>
<path d="M114.415 185.937C115.415 188.348 116.962 191.547 118.62 192.909C118.726 192.997 118.924 192.826 119.04 192.909C119.2 193.023 119.661 192.798 119.881 192.909C121.393 193.676 121.703 195.081 122.193 194.811C129.7 179.595 118.628 157.254 115.677 175.48C114.128 185.046 118.625 191.602 114.415 185.937Z" fill="#090814"/>
<path d="M119.671 171.36L119.461 180.55C121.813 205.185 120.884 182.461 119.671 171.36Z" fill="white"/>
<path d="M130.812 208.754C131.135 209.282 131.267 209.538 131.653 210.022C131.524 207.924 130.979 208.997 130.812 208.754Z" fill="white"/>
<path d="M132.494 213.825C132.235 213.355 131.997 212.592 132.074 211.923C132.05 211.896 132.097 211.767 131.653 211.29C131.05 210.642 130.448 210.71 130.392 210.656C117.999 198.782 110.731 206.193 116.728 213.191C121.204 218.414 127.789 218.28 132.494 213.825Z" fill="#090814"/>
<path d="M115.046 208.121C114.709 208.333 114.707 209.171 115.046 209.388C118.756 211.765 146.498 214.243 115.046 208.121Z" fill="white"/>
<path d="M132.494 309.529L133.335 309.212C132.889 308.295 132.529 308.321 132.494 308.262C132.551 308.423 132.462 309.043 132.494 309.529Z" fill="white"/>
<path d="M134.596 310.48C134.681 310.988 134.686 312.397 134.386 312.698C134.121 312.162 132.622 309.62 132.494 309.529C130.655 308.226 124.865 306.968 122.614 306.994C121.349 307.009 108.487 310.124 108.529 311.748C113.322 319.355 129.431 321.584 135.017 316.501C128.981 312.591 121.986 314.68 115.677 311.748L136.278 314.917" fill="#090814"/>
<path d="M132.494 308.262C132.529 308.321 132.889 308.295 133.335 309.212L132.494 309.529C132.622 309.62 134.121 312.162 134.386 312.698C134.686 312.398 134.681 310.988 134.596 310.48" fill="#555758"/>
<path d="M135.857 317.769V316.184C135.588 315.426 135.343 316.713 135.017 316.501C129.431 321.584 113.322 319.355 108.53 311.748C108.487 310.124 121.349 307.009 122.614 306.994C124.865 306.968 130.655 308.226 132.494 309.529C132.463 309.043 132.551 308.423 132.494 308.262C131.51 306.618 130.041 305.332 129.131 303.508C128.775 290.057 118.662 278.279 110.842 274.036C97.5107 266.804 99.4125 278.241 105.587 290.198C115.199 308.815 132.46 302.368 131.233 307.945C123.296 304.399 114.929 307.002 107.268 311.114C113.061 321.692 127.923 321.156 135.857 317.769Z" fill="#090814"/>
<path d="M106.217 272.769C100.039 271.6 100.594 276.046 104.325 285.762C107.652 294.424 115.616 302.177 122.193 303.191C131.997 304.703 120.173 299.306 113.364 291.783C103.206 278.686 125.274 302.131 127.239 303.191C130.879 305.157 126.158 290.971 122.193 285.445C119.638 281.883 109.395 273.369 106.217 272.769Z" fill="#090814"/>
<path d="M182.092 86.3402C176.98 54.9741 189.702 23.2983 210.508 15.5905C231.315 7.88268 252.327 27.0616 257.44 58.4279C261.586 83.8661 254.001 109.505 239.888 122.4L244.432 197.658L199.702 164.77C199.702 164.77 205.212 146.397 206.682 127.437C194.858 121.033 185.315 106.112 182.092 86.3402Z" fill="#FFB6B6"/>
<path d="M241.002 142.951C241.002 142.951 224.789 185.878 200.072 145.466L154.196 243.237L176.1 322.733L276.203 325L271.83 232.23L241.002 142.951Z" fill="#D6D6E3"/>
<path d="M201.443 154.867L206.117 142.951C206.117 142.951 149.431 157.254 149.413 180.686L123.857 300.266C122.506 306.584 128.536 313.51 131.717 318.101C133.82 321.137 136.609 322.857 139.521 322.913L161.852 323.344L162.393 285.32L178.011 213.091L201.443 154.867Z" fill="#D6D6E3"/>
<path d="M239.354 152.24L240.725 142.84C240.725 142.84 291.366 154.627 291.385 178.059L316.94 297.639C318.291 303.958 312.261 310.884 309.081 315.475C306.977 318.511 304.188 320.231 301.276 320.287L278.945 320.718L278.404 282.694L262.786 210.465L239.354 152.24Z" fill="#D6D6E3"/>
<path d="M244.118 143.911C243.983 143.835 243.817 143.767 243.616 143.705C238.798 142.231 238.269 143.44 237.126 129.029C236.942 126.713 236.797 124.224 236.405 121.963C240.626 115.786 246.277 102.892 248.664 94.5132C249.294 93.7568 251.449 91.7408 251.548 91.5236C251.548 91.5236 251.548 91.5851 251.909 90.98C257.689 76.863 256.243 63.7068 249.926 75.2169C239.536 58.6072 221.09 57.1601 212.427 39.8857C205.131 43.3072 199.711 55.6738 197.464 66.2482C194.582 79.8076 196.742 94.5132 196.742 94.5132C198.36 102.138 206.129 118.699 209.723 123.593C210.54 129.15 210.107 134.116 209.362 139.357C209.037 141.648 207.502 144.75 207.559 145.608L187.368 141.803C187.074 140.742 180.889 139.317 177.272 125.496C169.091 94.2383 178.385 8.58753 208.821 8.90294C217.215 -8.16122 235.166 -2.86848 244.878 8.90294C264.014 32.0967 276.695 108.713 262.726 132.562C257.081 142.199 247.344 142.261 245.585 143.828L244.118 143.911Z" fill="#090814"/>
<path d="M251.909 90.9795C253.475 91.2446 254.979 95.2325 254.793 97.7741C254.423 102.86 248.804 102.883 249.385 98.8609C249.549 97.7275 252.37 96.6454 251.548 90.9795" fill="white"/>
<path d="M224.218 235.392C224.093 238.496 223.796 241.477 224.31 244.575C228.006 239.557 234.158 238.522 232.504 241.856C232.185 242.498 227.612 243.781 227.379 247.213C235.44 241.624 237.818 235.535 231.896 251.899C228.391 256.136 224.699 252.617 224.183 253.097C222.507 254.656 224.527 278.912 225.599 277.803C226.08 264.367 226.303 295.868 230.3 300.854C231.567 302.435 229.601 293.669 231.525 297.285C231.76 297.727 231.907 301.765 231.879 302.636C231.872 302.85 231.083 302.093 231.267 306.072C229.661 302.719 228.673 298.766 227.405 295.11C226.926 290.661 224.552 277.242 222.924 274.371C218.747 267.004 217.341 277.239 212.794 261.699C220.89 261.078 223.119 274.32 223.931 273.445C221.616 263.146 223.357 252.48 223.087 251.447C222.538 249.354 218.71 245.323 221.904 252.175C216.644 252.138 215.453 246.449 212.695 240.955C216.831 239.426 221.151 241.598 223.041 247.681C223.349 244.16 223.79 230.492 221.322 229.648C220.63 229.411 219.936 237.706 209.006 225.236C214.205 219.84 220.776 219.297 222.9 229.778C226.26 220.249 223.306 225.279 223.073 225.021C222.455 224.338 224.611 218.204 214.736 206.533C220.192 219.49 199.969 208.385 212.501 206.073C210.493 190.18 213.206 202.121 214.911 205.08C215.823 206.662 222.697 217.516 223.288 217.423C223.517 217.387 224.313 212.177 226.485 214.843C228.824 217.712 224.657 226.905 226.797 224.686C230.573 220.774 224.213 206.48 226.083 200.772C229.002 191.864 226.552 203.998 229.678 202.353C222.661 215.386 235.174 218.091 223.646 231.032C223.601 232.384 224.227 235.17 224.218 235.392Z" fill="#FF6363"/>
<path d="M240.675 244.51C239.393 246.48 236.667 247.473 234.936 248.349C230.138 254.676 231.673 284.371 233.164 293.803C232.037 293.732 231.918 293.141 231.849 293.144L230.836 284.161L230.973 293.806C230.454 294.031 230.388 293.922 230.359 293.939C230.218 289.964 229.726 286.804 229.915 282.709C230.03 280.23 231.065 281.113 231.097 280.329C231.141 279.233 230.614 273.055 230.827 267.645C230.986 263.639 232.416 251.52 232.22 249.409C231.723 244.046 224.794 234.12 231.423 234.48C231.072 230.855 233.233 225.202 234.352 220.867C234.82 219.053 236.983 214.265 236.845 212.54C236.632 209.86 235.258 211.262 234.697 209.702C233.863 207.386 235.556 196.929 237.32 197.807C238.362 198.326 236.135 205.234 242.578 197.14C241.389 210.185 244.407 203.124 245.563 205.46C247.782 209.946 237.351 206.948 233.96 224.963C232.59 232.241 234.497 237.799 238.827 230.045C241.028 236.196 238.324 239.763 238.92 240.879C239.37 241.721 244.783 238.2 240.675 244.51Z" fill="#5233DD"/>
<path d="M203.431 221.86C204.487 225.61 205.294 229.366 207.097 232.546C209.487 223.409 216.299 216.779 215.651 222.145C215.526 223.179 210.66 228.709 211.718 232.938C219.004 219.288 219.433 210.055 218.828 234.455C216.36 242.509 210.669 241.633 210.25 242.65C208.888 245.954 220.653 272.616 221.48 270.373C216.839 254.195 229.303 290.934 235.922 293.261C238.02 293.999 232.319 285.451 235.976 287.998C236.423 288.309 238.16 292.914 238.463 293.961C238.538 294.218 237.32 294.025 239.077 298.528C235.896 296.011 233.206 292.245 230.302 289.075C228.017 284.28 220.035 270.637 217.014 268.704C209.262 263.743 211.58 276.981 200.228 262.764C209.48 254.908 217.223 268.472 217.837 266.731C211.132 256.693 209.042 242.654 208.325 241.681C206.871 239.709 200.821 238.354 207.22 243.576C201.038 248.164 197.437 242.542 192.076 238.528C196.333 233.094 202.239 231.838 206.812 237.306C205.81 232.906 201.032 216.492 197.811 217.674C196.908 218.006 199.308 228.343 181.661 223.345C185.667 212.441 193.161 206.019 199.711 216.438C199.96 202.308 198.445 210.806 198.071 210.709C197.082 210.451 197.234 201.361 181.135 196.37C192.551 206.759 164.537 211.542 178.336 197.799C169.824 180.931 177.631 192.544 180.776 194.512C182.459 195.565 194.723 202.24 195.38 201.611C195.635 201.366 194.549 194.557 198.13 195.77C201.983 197.076 200.658 211.522 202.309 207.037C205.22 199.126 192.226 187.965 192.208 179.625C192.178 166.611 194.007 182.996 197.034 178.315C193.856 199.774 209.575 191.929 201.072 217.252C201.543 218.877 203.356 221.593 203.431 221.86Z" fill="#5233DD"/>
<path d="M229.753 230.613C229.012 234.051 226.201 237.615 224.511 240.166C221.335 251.809 234.638 285.276 240.041 295.023C238.692 295.931 238.324 295.343 238.244 295.408L233.576 285.766L237.473 296.955C236.952 297.675 236.832 297.606 236.805 297.651C235.099 293.114 233.298 289.843 231.934 284.874C231.108 281.868 232.664 281.991 232.398 281.043C232.025 279.72 229.013 272.94 227.168 266.409C225.801 261.572 222.783 246.104 221.736 243.801C219.075 237.95 207.107 232.411 215.019 226.998C213.202 223.057 213.547 214.526 213.179 208.458C213.026 205.919 213.707 198.401 212.877 196.499C211.589 193.545 210.521 196.398 209.258 195.063C207.384 193.081 205.318 179.33 207.726 178.807C209.149 178.498 209.214 188.558 213.633 173.395C217.292 189.739 218.095 178.802 220.356 180.524C224.695 183.83 211.304 189.497 214.306 213.606C215.519 223.345 219.908 228.184 221.981 215.279C226.945 220.553 225.156 227.117 226.288 227.9C227.142 228.491 232.125 219.597 229.753 230.613Z" fill="#5233DD"/>
<path d="M219.281 282.5C214.696 282.669 210.204 284.488 206.18 287.806L158.252 285.986L158.341 320.397L206.951 318.538C211.129 321.392 215.699 322.696 220.279 322.342C231.754 321.688 240.822 312.238 240.545 301.24C240.268 290.241 230.746 281.859 219.278 282.504L219.281 282.5Z" fill="#FFB6B6"/>
<path d="M235.451 246.959C239.665 249.69 243.384 253.901 246.299 259.239L288.867 293.381L282.644 316.347L237.99 287.328C233.408 287.63 228.845 286.275 224.682 283.374C214.193 276.324 208.113 262.462 211.087 252.411C214.062 242.36 224.969 239.926 235.453 246.965L235.451 246.959Z" fill="#FFB6B6"/>
<path d="M140.404 282.374L162.393 285.32L207.74 286.043L203.317 322.282L142.838 322.732L140.404 282.374Z" fill="#D6D6E3"/>
<path d="M295.745 301.885L291.257 288.449L251.715 259.659L243.637 292.794L280.104 322.564L295.745 301.885Z" fill="#D6D6E3"/>
<path d="M0.00344227 322.177C-0.0491739 323.298 0.50851 324.273 1.25199 324.36H428.728C429.527 324.203 430.092 323.099 429.988 321.893C429.902 320.903 429.385 320.123 428.728 319.994H1.25198C0.508504 320.081 -0.0491739 321.056 0.00344227 322.177Z" fill="#CCCCCC"/>
</g>
<defs>
<clipPath id="clip0_30_277">
<rect y="-2" width="430" height="327" rx="15" fill="white"/>
</clipPath>
</defs>
</svg>
