<svg width="500" height="350" viewBox="0 0 500 350" fill="none" xmlns="http://www.w3.org/2000/svg">
<g clip-path="url(#clip0_59_14)">
<mask id="path-1-inside-1_59_14" fill="white">
<path d="M0 0H500V350H0V0Z"/>
</mask>
<path d="M0 0H500V350H0V0Z" fill="#5233DD" fill-opacity="0.23"/>
<path d="M75.7757 213.738C72.0132 213.745 68.2774 212.409 64.7268 209.786L64.4625 209.591L64.6802 207.446C58.2542 180.931 60.4732 144.488 70.3483 114.522C79.3318 87.2613 93.0136 67.4158 105.083 49.91C106.569 47.7547 108.326 46.5822 110.13 46.5426C111.934 46.503 113.702 47.5981 115.209 49.6877C116.715 51.7774 117.892 54.7665 118.588 58.2727C119.283 61.7789 119.467 65.6427 119.114 69.3696L114.847 114.487C111.741 147.342 108.047 178.433 97.1155 197.762C91.0893 208.111 83.5505 213.755 75.7757 213.738Z" fill="#E6FFAD"/>
<path d="M67.5731 323.919C65.3391 289.632 63.0406 254.902 64.6114 220.247C66.0034 189.47 70.4607 159.415 79.5351 134.761C84.3518 121.702 90.2128 110.513 96.8547 101.697C98.5862 99.3954 100.18 105.176 98.4561 107.469C86.9636 122.769 78.0744 145.362 73.0702 171.991C67.5434 201.603 66.656 233.885 67.608 265.341C68.1834 284.364 69.4062 303.263 70.6342 322.139C70.7312 322.992 70.6706 323.892 70.4649 324.655C70.2591 325.418 69.9234 325.988 69.5257 326.25C69.12 326.48 68.6875 326.364 68.3222 325.927C67.9568 325.49 67.688 324.767 67.5741 323.915L67.5731 323.919Z" fill="#3F3D56"/>
<path d="M104.104 292.781C99.9985 292.759 95.9595 290.601 92.3453 286.5C88.7312 282.398 85.6538 276.48 83.3866 269.27L83.2317 268.775L83.8516 267.668C85.7161 246.074 94.7468 226.792 106.894 218.498C117.932 210.96 130.16 212.192 140.945 213.284C142.288 213.419 143.582 214.395 144.66 216.088C145.738 217.78 146.552 220.112 146.998 222.784C147.443 225.457 147.5 228.349 147.161 231.09C146.822 233.831 146.102 236.297 145.094 238.171L133.044 260.586C124.258 276.935 115.5 291.696 104.975 292.747C104.685 292.769 104.393 292.781 104.104 292.781Z" fill="#E6FFAD"/>
<path d="M61.2583 343.629C72.0135 303.539 84.4875 258.984 106.778 244.743C112.976 240.797 119.474 239.384 125.924 240.578C127.957 240.948 127.449 247.549 125.42 247.181C114.609 245.29 103.819 251.304 94.8661 264.21C86.2508 276.563 79.5425 293.739 73.8656 311.951C70.3877 323.108 67.2726 334.738 64.1576 346.352C63.1623 350.064 60.2513 347.383 61.2583 343.629Z" fill="#3F3D56"/>
<path d="M171.864 290.507C170.219 290.51 168.587 289.926 167.035 288.78L166.771 288.585L166.885 287.463C164.117 275.906 165.088 260.09 169.373 247.087C173.269 235.264 179.189 226.678 184.41 219.104C185.081 218.131 185.875 217.601 186.689 217.583C187.504 217.566 188.303 218.06 188.983 219.004C189.663 219.947 190.195 221.297 190.509 222.881C190.823 224.464 190.906 226.209 190.746 227.891L188.905 247.365C187.557 261.615 185.953 275.103 181.191 283.523C178.557 288.047 175.262 290.515 171.864 290.507Z" fill="#E6FFAD"/>
<path d="M168.324 337.681C167.36 322.882 166.368 307.893 167.045 292.936C167.646 279.652 169.57 266.681 173.487 256.04C175.565 250.404 178.095 245.575 180.962 241.77C181.709 240.776 182.397 243.271 181.653 244.261C176.693 250.864 172.856 260.615 170.696 272.109C168.311 284.889 167.928 298.822 168.339 312.399C168.587 320.609 169.115 328.765 169.645 336.912C169.687 337.281 169.661 337.669 169.572 337.998C169.483 338.328 169.338 338.574 169.166 338.687C168.991 338.786 168.805 338.736 168.647 338.547C168.489 338.358 168.373 338.046 168.324 337.679L168.324 337.681Z" fill="#3F3D56"/>
<path d="M184.091 324.623C182.289 324.613 180.516 323.667 178.93 321.866C177.343 320.066 175.993 317.468 174.998 314.304L174.843 313.808L175.183 313.199C176.026 303.797 179.959 295.422 185.239 291.818C190.035 288.543 195.328 289.076 200 289.549C200.615 289.611 201.208 290.059 201.702 290.835C202.197 291.61 202.57 292.679 202.774 293.904C202.978 295.129 203.004 296.455 202.849 297.711C202.694 298.968 202.364 300.098 201.902 300.957L196.701 310.632C192.884 317.734 189.076 324.148 184.476 324.607C184.347 324.617 184.219 324.623 184.091 324.623Z" fill="#E6FFAD"/>
<path d="M165.598 346.187C170.24 328.885 175.624 309.655 185.245 303.508C187.92 301.805 190.724 301.195 193.508 301.711C194.385 301.871 194.166 304.719 193.291 304.56C188.624 303.744 183.967 306.34 180.103 311.91C176.385 317.242 173.49 324.655 171.04 332.515C169.539 337.331 168.194 342.35 166.85 347.362C166.42 348.965 165.164 347.808 165.598 346.187Z" fill="#3F3D56"/>
<path d="M440.251 289.21C434.742 289.21 430.543 282.944 427.502 270.269C424.586 258.116 427.61 247.624 431.654 243.018C435.706 238.402 441.541 238.817 444.776 250.63C447.929 262.142 448.291 274.073 445.852 286.097L445.972 287.277L445.686 287.45C443.922 288.568 442.092 289.16 440.251 289.21Z" fill="#E6FFAD"/>
<path d="M445.689 348.415C448.506 314.852 448.684 272.342 433.05 252.504C432.304 251.511 431.616 254.005 432.36 254.995C447.453 274.227 447.005 315.294 444.367 347.647C444.326 348.011 444.354 348.394 444.444 348.716C444.535 349.038 444.681 349.274 444.852 349.373C445.024 349.472 445.207 349.428 445.362 349.249C445.518 349.07 445.635 348.77 445.689 348.413L445.689 348.415Z" fill="#3F3D56"/>
<path d="M373.828 321.978C371.86 321.867 369.928 320.842 368.17 318.976C363.738 314.594 363.256 305.392 364.683 298.694C366.095 292.072 369.644 286.778 374.099 290.807C376.092 292.481 377.864 295.146 379.263 298.575C380.662 302.004 381.647 306.095 382.133 310.5L382.495 311.147L382.317 311.653C379.878 318.549 377.073 321.978 373.828 321.978Z" fill="#E6FFAD"/>
<path d="M394.911 346.187C389.364 323.817 380.506 298.517 367.001 301.712C366.124 301.871 366.343 304.719 367.219 304.56C380.046 301.764 388.392 326.067 393.66 347.363C394.09 348.965 395.346 347.808 394.911 346.187Z" fill="#3F3D56"/>
<path d="M499.363 350H0.636974C0.468046 350 0.306037 349.859 0.186587 349.607C0.0671373 349.355 3.14713e-05 349.014 3.14713e-05 348.658C3.14713e-05 348.302 0.0671373 347.961 0.186587 347.709C0.306037 347.458 0.468046 347.316 0.636974 347.316H499.363C499.532 347.316 499.694 347.458 499.813 347.709C499.933 347.961 500 348.302 500 348.658C500 349.014 499.933 349.355 499.813 349.607C499.694 349.859 499.532 350 499.363 350Z" fill="#CACACA"/>
<path d="M379.618 261.44H213.376C213.207 261.44 213.045 261.299 212.925 261.047C212.806 260.796 212.739 260.454 212.739 260.099C212.739 259.743 212.806 259.401 212.925 259.15C213.045 258.898 213.207 258.757 213.376 258.757H379.618C379.787 258.757 379.949 258.898 380.068 259.15C380.188 259.401 380.255 259.743 380.255 260.099C380.255 260.454 380.188 260.796 380.068 261.047C379.949 261.299 379.787 261.44 379.618 261.44Z" fill="#CACACA"/>
<path d="M298.845 36.1344L297.75 7.43088C297.647 6.8181 297.472 6.26984 297.242 5.83629C297.011 5.40274 296.733 5.09771 296.433 4.94917C296.132 4.80063 295.818 4.81331 295.521 4.98603C295.223 5.15874 294.951 5.48601 294.729 5.93784C285.944 10.478 282.4 20.1397 281.384 32.2737C277.169 30.3915 272.835 29.9806 268.557 31.0575C271.645 21.7982 271.432 12.3611 268.22 2.76267C268.129 2.13466 267.965 1.56501 267.742 1.10674C267.519 0.648459 267.245 0.316433 266.944 0.141612C266.644 -0.0332091 266.328 -0.0451732 266.025 0.106846C265.722 0.258866 265.442 0.569945 265.211 1.01108C259.27 7.33735 255.114 15.2212 254.445 26.1464C246.983 34.5768 240.999 47.8215 237.371 63.9389C233.743 80.0562 232.661 98.1983 234.285 115.705C235.908 133.212 240.152 149.162 246.392 161.218C252.633 173.274 260.543 180.8 268.963 182.694C277.382 184.588 285.868 180.75 293.177 171.742C300.485 162.735 306.231 149.031 309.573 132.641C312.915 116.252 313.676 98.0376 311.745 80.6698C309.815 63.302 305.294 47.6941 298.845 36.1344Z" fill="#3F3D56"/>
<path d="M303.792 152.616C335.903 143.939 353.967 254.282 302.163 260.429C298.985 267.776 274.072 273.919 252.959 263.776C234.008 265.376 212.465 213.156 239.031 141.932L303.792 152.616Z" fill="#3F3D56"/>
<path d="M271.734 209.554V265.376H284.123L293.952 208.535" fill="#3F3D56"/>
<path d="M315.988 246.55C315.92 246.345 315.87 246.129 315.811 245.918C315.283 245.959 314.756 246 314.228 246.041L315.988 246.55Z" fill="#3F3D56"/>
<path d="M364.8 214.296C360.845 200.98 351.169 197.28 345.245 206.819C342.572 211.124 340.77 217.346 338.487 222.551C334.645 231.252 329.521 236.965 323.945 238.764C320.064 239.99 315.959 239.324 312.374 242.691C308.898 245.956 306.276 255.276 308.168 262.02C321.51 260.984 334.852 259.948 348.194 258.912C352.033 258.614 356.008 258.246 359.44 254.613C366.103 247.562 368.755 227.612 364.8 214.296Z" fill="#3F3D56"/>
<path d="M270.123 175.725C264.642 175.831 259.211 173.547 254.17 169.019C243.644 159.394 238.82 143.151 238.62 142.464C238.554 142.234 238.534 141.959 238.564 141.698C238.594 141.437 238.672 141.212 238.78 141.071C238.889 140.931 239.019 140.886 239.143 140.947C239.267 141.009 239.375 141.171 239.443 141.398C243.256 152.807 248.507 161.742 254.603 167.196C264.081 175.829 280.267 180.155 303.549 151.736C303.604 151.669 303.665 151.625 303.727 151.607C303.79 151.589 303.854 151.598 303.916 151.632C303.977 151.666 304.035 151.726 304.085 151.807C304.136 151.888 304.178 151.989 304.21 152.105C304.242 152.221 304.262 152.349 304.271 152.481C304.279 152.614 304.275 152.749 304.259 152.878C304.242 153.007 304.214 153.128 304.175 153.234C304.137 153.341 304.088 153.43 304.033 153.497C290.367 170.179 279.083 175.725 270.123 175.725Z" fill="white"/>
<path d="M272.217 124.083C271.321 124.081 270.462 123.33 269.828 121.994C269.194 120.659 268.837 118.849 268.836 116.96C268.837 116.691 268.888 116.434 268.979 116.244C269.069 116.055 269.192 115.948 269.319 115.948C269.447 115.948 269.569 116.055 269.66 116.244C269.75 116.434 269.802 116.691 269.802 116.96C269.803 118.308 270.058 119.6 270.511 120.552C270.964 121.505 271.577 122.04 272.217 122.04C272.857 122.04 273.471 121.505 273.924 120.552C274.376 119.6 274.631 118.308 274.632 116.96C274.633 116.691 274.684 116.434 274.775 116.244C274.865 116.055 274.988 115.948 275.115 115.948C275.243 115.948 275.365 116.055 275.456 116.244C275.546 116.434 275.598 116.691 275.598 116.96C275.597 118.849 275.241 120.659 274.607 121.994C273.973 123.33 273.114 124.081 272.217 124.083Z" fill="white"/>
<path d="M272.459 107.372C274.593 107.372 276.323 105.971 276.323 104.241C276.323 102.512 274.593 101.111 272.459 101.111C270.325 101.111 268.595 102.512 268.595 104.241C268.595 105.971 270.325 107.372 272.459 107.372Z" fill="white"/>
<path d="M246.477 104.471C247.583 101.682 248.966 99.4392 250.528 97.9C252.091 96.3607 253.794 95.5629 255.519 95.5629C257.244 95.5629 258.948 96.3607 260.51 97.9C262.072 99.4392 263.455 101.682 264.561 104.471C266.434 100.704 267.735 95.8508 268.299 90.5259C268.863 85.201 268.665 79.6434 267.73 74.5558C266.794 69.4681 265.164 65.079 263.045 61.9435C260.925 58.808 258.412 57.0668 255.823 56.9402C253.234 56.8136 250.685 58.3073 248.499 61.2324C246.313 64.1574 244.587 68.3824 243.541 73.3732C242.495 78.3639 242.174 83.8962 242.621 89.2705C243.067 94.6447 244.259 99.6196 246.048 103.566C246.188 103.875 246.331 104.176 246.477 104.471Z" fill="white"/>
<path d="M281.832 104.471C282.938 101.682 284.321 99.4392 285.883 97.8999C287.446 96.3607 289.149 95.5629 290.874 95.5629C292.599 95.5629 294.303 96.3607 295.865 97.8999C297.427 99.4392 298.81 101.682 299.916 104.471C301.789 100.704 303.09 95.8508 303.654 90.526C304.218 85.2011 304.02 79.6434 303.085 74.5558C302.149 69.4682 300.519 65.0791 298.4 61.9435C296.28 58.808 293.767 57.0668 291.178 56.9402C288.589 56.8136 286.04 58.3073 283.854 61.2323C281.668 64.1573 279.942 68.3823 278.896 73.3731C277.85 78.3638 277.529 83.8961 277.975 89.2704C278.422 94.6446 279.614 99.6195 281.403 103.566C281.542 103.875 281.686 104.176 281.832 104.471Z" fill="white"/>
<path d="M249.778 96.6902C252.266 96.6902 254.283 92.4418 254.283 87.2011C254.283 81.9605 252.266 77.7121 249.778 77.7121C247.291 77.7121 245.274 81.9605 245.274 87.2011C245.274 92.4418 247.291 96.6902 249.778 96.6902Z" fill="#3F3D56"/>
<path d="M285.132 96.6902C287.62 96.6902 289.636 92.4418 289.636 87.2011C289.636 81.9605 287.62 77.7121 285.132 77.7121C282.644 77.7121 280.628 81.9605 280.628 87.2011C280.628 92.4418 282.644 96.6902 285.132 96.6902Z" fill="#3F3D56"/>
<path d="M291.296 124.552C293.475 124.552 295.243 120.829 295.243 116.237C295.243 111.644 293.475 107.922 291.296 107.922C289.116 107.922 287.349 111.644 287.349 116.237C287.349 120.829 289.116 124.552 291.296 124.552Z" fill="#FF6584"/>
<path d="M255.627 124.552C257.807 124.552 259.574 120.829 259.574 116.237C259.574 111.644 257.807 107.922 255.627 107.922C253.447 107.922 251.68 111.644 251.68 116.237C251.68 120.829 253.447 124.552 255.627 124.552Z" fill="#FF6584"/>
<path d="M213.446 259.673C215.031 257.592 213.913 247.787 210.95 237.772C207.986 227.758 204.299 221.327 202.715 223.408C201.13 225.489 202.248 235.294 205.211 245.308C208.175 255.323 211.862 261.754 213.446 259.673Z" fill="#3F3D56"/>
<path d="M229.601 191.059L208.08 238.812L213.692 259.168L234.008 233.594" fill="#3F3D56"/>
<path d="M267.237 279.386C267.51 275.495 263.24 270.939 257.698 269.211C252.157 267.483 247.443 269.237 247.169 273.128C246.896 277.019 251.166 281.575 256.708 283.303C262.249 285.031 266.963 283.277 267.237 279.386Z" fill="#3F3D56"/>
<path d="M252.882 209.024L256.217 274.493L267.195 279.296L271.12 229.494" fill="#3F3D56"/>
<path d="M301.317 278.041C306.887 276.772 311.239 272.572 311.038 268.662C310.837 264.751 306.16 262.609 300.59 263.878C295.021 265.148 290.669 269.347 290.87 273.258C291.071 277.169 295.748 279.31 301.317 278.041Z" fill="#3F3D56"/>
<path d="M288.728 208.188L299.787 269.773L310.985 268.593L308.827 218.314" fill="#3F3D56"/>
</g>
<path d="M500 350V349H0V350V351H500V350Z" fill="#5233DD" mask="url(#path-1-inside-1_59_14)"/>
<defs>
<clipPath id="clip0_59_14">
<path d="M0 0H500V350H0V0Z" fill="white"/>
</clipPath>
</defs>
</svg>
