<svg width="430" height="308" viewBox="0 0 430 308" fill="none" xmlns="http://www.w3.org/2000/svg">
<g clip-path="url(#clip0_30_451)">
<rect width="430" height="308" rx="15" fill="white"/>
<path d="M365.313 70.5276C359.322 62.9221 352.224 54.8012 341.107 52.3177C328.233 49.4418 315.008 55.1552 303.79 60.793C270.243 77.6534 237.936 95.9254 207.018 115.525L207.052 115.821L279.265 111.998C296.656 111.077 314.645 110.029 330.014 103.713C335.846 101.318 341.531 98.1157 348.14 97.8927C356.35 97.6156 363.509 102.018 369.136 106.617C402.416 133.822 412.046 175.425 449.384 199.328C425.84 154.756 397.728 111.687 365.313 70.5276Z" fill="#F2F2F2"/>
<path d="M562 290.909H558.704C530.014 262.296 503.02 232.743 477.72 202.251C460.052 180.978 443.261 159.292 427.348 137.194C426.41 135.893 425.476 134.59 424.544 133.285C417.958 124.063 411.527 114.779 405.25 105.433C399.69 97.1588 394.256 88.8364 388.947 80.466C387.432 78.0737 385.956 75.6748 384.487 73.2648C381.027 67.6064 377.637 61.9144 373.99 56.3307C370.311 50.6884 365.919 44.8122 359.672 40.5729C358.87 40.0204 358.03 39.5 357.158 39.0138C356.168 38.457 355.13 37.9541 354.049 37.5087C353.941 37.4608 353.83 37.4186 353.721 37.3707C351.081 36.2899 348.175 35.6464 345.191 35.482C338.982 35.1701 333.256 37.1427 327.866 39.2892C318.774 42.9288 309.82 46.7782 301.004 50.8375C271.713 64.3501 244.073 79.8676 218.422 97.2006L218.226 97.3323C184.78 119.88 154.885 145.354 129.15 173.236C128.362 174.099 126.503 173.271 127.3 172.409C130.424 169.01 133.613 165.648 136.868 162.324C161.141 137.529 188.766 114.777 219.28 94.4486C222.694 92.17 226.146 89.9236 229.638 87.7092C246.778 76.816 264.729 66.6975 283.4 57.405C289.118 54.557 294.901 51.7949 300.748 49.1185C304.622 47.3378 308.523 45.5929 312.449 43.8837C317.417 41.7253 322.408 39.5907 327.485 37.5938C332.46 35.6269 337.741 33.8641 343.427 33.7985C347.524 33.741 351.571 34.4969 355.175 35.9929C355.283 36.0408 355.401 36.0829 355.511 36.1366C357.714 37.0831 359.759 38.2307 361.603 39.5544C369.859 45.4243 375.382 54.6344 379.677 61.7038C381.841 65.2715 384.031 68.8236 386.246 72.3599C394.612 85.797 403.303 99.1143 412.319 112.312C417.139 119.357 422.049 126.372 427.051 133.358C427.816 134.443 428.597 135.528 429.378 136.607C447.453 161.677 466.663 186.241 487.007 210.299C511.166 238.863 535.162 264.443 562 290.909Z" fill="#5233DD"/>
<path d="M258.491 195.125C258.491 195.125 254.702 201.883 255.593 202.848C256.485 203.814 244.671 199.63 244.671 199.63C244.671 199.63 248.46 192.872 248.46 192.067C248.46 191.262 258.491 195.125 258.491 195.125Z" fill="#FFB9B9"/>
<path d="M388.619 289.073C388.619 289.073 388.953 283.693 395.81 284.318L388.619 289.073Z" fill="#090814"/>
<path d="M386.684 283.953C388.579 283.953 390.116 282.774 390.116 281.319C390.116 279.864 388.579 278.684 386.684 278.684C384.788 278.684 383.252 279.864 383.252 281.319C383.252 282.774 384.788 283.953 386.684 283.953Z" fill="#5233DD"/>
<path d="M387.094 285.755H386.125V290.961H387.094V285.755Z" fill="#090814"/>
<path d="M155.628 130.897C155.628 132.214 155.573 133.521 155.461 134.816C154.838 142.288 152.379 149.602 148.214 156.372C148.182 156.43 148.144 156.484 148.112 156.537C147.918 156.851 147.719 157.165 147.514 157.475C146.276 159.39 144.902 161.251 143.398 163.051C136.531 171.312 127.119 178.148 115.994 182.954C104.868 187.761 92.3715 190.389 79.6083 190.608L80.3777 224.575L90.4122 220.519L92.2039 223.134L80.4531 227.883L81.8896 290.969L81.9058 291.812L74.1472 293.138L74.1634 292.291L76.6061 190.612C66.3329 190.499 56.1914 188.82 46.7704 185.673C37.3493 182.527 28.8364 177.975 21.7259 172.282C21.2363 171.894 20.752 171.493 20.2786 171.096C20.257 171.08 20.2409 171.063 20.2247 171.051C14.3004 166.091 9.50908 160.4 6.05275 154.216C6.12807 154.282 6.20877 154.344 6.2841 154.41C-1.52728 140.388 -2.05704 124.603 4.80338 110.291C11.6638 95.9781 25.3949 84.2216 43.183 77.4302C43.452 77.3269 43.7264 77.2278 43.9954 77.1245C61.591 70.6184 81.7287 69.4246 100.417 73.7798C119.105 78.1349 134.98 87.7211 144.894 100.638C145.368 101.249 145.825 101.873 146.266 102.501C152.425 111.218 155.643 120.98 155.628 130.897Z" fill="#E5E5E5"/>
<path d="M145.154 156.569C201.476 156.569 247.134 121.52 247.134 78.2847C247.134 35.0493 201.476 0 145.154 0C88.832 0 43.1741 35.0493 43.1741 78.2847C43.1741 121.52 88.832 156.569 145.154 156.569Z" fill="#C0E960"/>
<path opacity="0.2" d="M69.8555 25.9968C47.7157 65.7548 71.7511 111.764 123.543 128.761C143.193 135.21 164.985 136.757 185.843 133.185C206.7 129.613 225.569 121.102 239.785 108.853C217.646 148.612 157.712 167.067 105.92 150.073C54.1281 133.079 30.0862 87.0699 52.2234 47.3119C56.5603 39.5223 62.5152 32.3247 69.8561 25.9997L69.8555 25.9968Z" fill="black"/>
<path d="M150.673 296.372L140.256 294.129L140.278 293.27L143.398 163.051L143.554 156.558L143.56 156.368L144.103 133.618L144.894 100.642V100.638L145.432 78.2852H145.717L146.266 102.501L146.982 134.019L147.493 156.384V156.55L147.514 157.471V157.475L148.504 201.07L148.607 205.402L150.651 295.504L150.673 296.372Z" fill="#090814"/>
<path d="M161.654 195.755L144.797 202.568L147.146 205.993L164.003 199.18L161.654 195.755Z" fill="#090814"/>
<path d="M347.386 281.821L324.328 265.571C324.328 265.571 348.925 270.193 347.386 281.821Z" fill="#F1F1F1"/>
<path d="M108.28 287.607V263.58C108.28 263.58 120.478 280.614 108.28 287.607Z" fill="#F1F1F1"/>
<path d="M109.034 287.603L85.9764 271.354C85.9764 271.354 110.572 275.976 109.034 287.603Z" fill="#F1F1F1"/>
<path d="M191.139 304.954V275.076C191.139 275.076 206.307 296.258 191.139 304.954Z" fill="#F1F1F1"/>
<path d="M192.075 304.949L163.403 284.743C163.403 284.743 193.989 290.49 192.075 304.949Z" fill="#F1F1F1"/>
<path d="M437.61 301.299L437.314 302.096L347.014 282.354L278.99 293.865L191.994 305.272L191.876 305.248L150.673 296.372L140.256 294.129L108.442 287.273L81.9055 291.812L74.147 293.138L57.2794 296.025L57.048 295.219L74.1631 292.291L81.8894 290.969L108.474 286.422L108.603 286.447L140.278 293.27L150.651 295.504L192.048 304.426L278.78 293.055L347.047 281.503L347.181 281.527L437.61 301.299Z" fill="#C0E960"/>
<path d="M276.06 50.1569L282.945 45.9304C277.596 45.476 275.399 47.7163 274.497 49.4886C270.319 48.157 265.771 49.9016 265.771 49.9016L279.545 53.7403C278.85 52.3155 277.64 51.0723 276.058 50.1564L276.06 50.1569Z" fill="#090814"/>
<path d="M260.995 129.045L267.879 124.818C262.531 124.364 260.334 126.604 259.432 128.377C255.254 127.045 250.706 128.79 250.706 128.79L264.48 132.628C263.785 131.203 262.575 129.96 260.993 129.044L260.995 129.045Z" fill="#090814"/>
<path d="M211.054 310.669L217.658 312.334L230.266 295.843L220.518 293.385L211.054 310.669Z" fill="#FFB9B9"/>
<path d="M266.532 315.029H273.814L275.14 298.41L264.403 298.663L266.532 315.029Z" fill="#FFB9B9"/>
<path d="M240.321 199.766L242.15 196.954L257.716 202.929L257.259 205.389L260.234 208.377C260.234 208.377 265.27 210.486 264.355 217.514L263.44 224.192L262.296 232.803L270.308 254.066L274.428 282.182L277.404 304.851L262.984 304.324L249.707 267.421L226.356 307.135L210.333 303.97L232.309 264.609L235.056 248.091C235.056 248.091 233.227 239.304 241.924 233.33L240.55 230.167V226.269L235.971 207.674L240.321 199.766Z" fill="#090814"/>
<path opacity="0.2" d="M239.893 239.951L239.375 240.063L249.447 267.477L249.965 267.365L239.893 239.951Z" fill="black"/>
<path d="M240.779 234.56H263.212V232.802H240.779V234.56Z" fill="#D6D6E3"/>
<path d="M263.213 235.614C263.719 235.614 264.129 234.828 264.129 233.857C264.129 232.886 263.719 232.1 263.213 232.1C262.707 232.1 262.297 232.886 262.297 233.857C262.297 234.828 262.707 235.614 263.213 235.614Z" fill="#D6D6E3"/>
<path d="M263.803 191.495C267.036 186.955 264.863 181.263 258.949 178.781C253.035 176.299 245.62 177.968 242.387 182.508C239.154 187.048 241.327 192.74 247.241 195.222C253.156 197.703 260.571 196.035 263.803 191.495Z" fill="#FFB9B9"/>
<path d="M234.422 183.656C240.385 183.656 245.218 179.946 245.218 175.368C245.218 170.791 240.385 167.081 234.422 167.081C228.459 167.081 223.626 170.791 223.626 175.368C223.626 179.946 228.459 183.656 234.422 183.656Z" fill="#090814"/>
<path d="M220.721 174.481C220.295 175.579 220.17 176.733 220.355 177.87C220.539 179.007 221.028 180.102 221.792 181.086C222.556 182.071 223.577 182.923 224.791 183.589C226.006 184.255 227.387 184.721 228.847 184.957C230.308 185.192 231.816 185.193 233.277 184.959C234.738 184.724 236.12 184.26 237.336 183.595C238.551 182.93 239.573 182.079 240.339 181.095C241.104 180.111 241.595 179.016 241.781 177.88C241.008 179.873 239.286 181.571 236.957 182.636C234.629 183.7 231.864 184.053 229.212 183.625C226.56 183.197 224.214 182.019 222.641 180.325C221.068 178.631 220.383 176.545 220.721 174.481Z" fill="#090814"/>
<path d="M263.372 184.399C263.689 186.541 263.076 188.704 261.63 190.552C260.183 192.4 257.983 193.83 255.37 194.62C252.757 195.411 249.877 195.518 247.177 194.925C244.477 194.331 242.107 193.071 240.434 191.339C238.762 189.607 237.88 187.5 237.926 185.344C237.972 183.188 238.943 181.105 240.688 179.415C242.434 177.726 244.856 176.526 247.58 176.001C250.304 175.476 253.177 175.655 255.755 176.51C257.887 175.189 260.53 175.6 262.68 176.992C265.11 178.568 265.831 179.649 267.716 182.238C265.862 182.44 265.226 184.2 263.372 184.399Z" fill="#090814"/>
<path d="M218.514 212.573C218.65 215.349 218.921 220.814 218.921 221.092C218.921 221.387 224.318 229.964 226.649 233.656C226.815 233.917 226.964 234.152 227.096 234.358C227.276 234.645 227.559 234.885 227.912 235.052C228.265 235.218 228.673 235.304 229.087 235.298L239.276 235.158C239.835 235.151 240.369 234.978 240.767 234.676C241.165 234.374 241.395 233.966 241.41 233.537L242.547 199.125C242.551 199.012 242.525 198.899 242.471 198.793C242.417 198.688 242.336 198.591 242.233 198.51C242.129 198.429 242.006 198.364 241.87 198.32C241.734 198.276 241.587 198.253 241.44 198.253H228.301C227.746 198.253 227.202 198.373 226.732 198.6C226.261 198.826 225.884 199.15 225.642 199.533L219.336 209.549C218.744 210.49 218.462 211.528 218.514 212.573Z" fill="#5233DD"/>
<path d="M241.589 231.175C244.203 229.959 246.552 228.435 248.55 226.658C253.193 222.65 256.016 217.594 256.597 212.249C257.115 207.676 255.933 204.277 253.083 202.145C249.461 199.436 244.532 199.829 244.323 199.848L244.103 199.867L240.765 202.035L241.71 202.893L244.699 200.952C245.614 200.916 249.348 200.91 252.077 202.957C254.588 204.843 255.619 207.936 255.143 212.15C254.591 217.239 251.909 222.055 247.499 225.878C245.596 227.568 243.366 229.022 240.886 230.19L241.589 231.175Z" fill="#5233DD"/>
<path d="M222.625 218.101L222.527 218.468L240.339 221.272L240.437 220.906L222.625 218.101Z" fill="#090814"/>
<path d="M234.367 198.247L233.205 219.99L233.692 220.005L234.855 198.262L234.367 198.247Z" fill="#090814"/>
<path d="M218.514 212.572C218.65 215.349 218.921 220.814 218.921 221.092C218.921 221.386 224.318 229.964 226.649 233.656L222.304 214.285C222.135 213.54 221.712 212.842 221.078 212.264C220.443 211.685 219.62 211.246 218.692 210.992C218.546 211.511 218.486 212.042 218.514 212.572Z" fill="#090814"/>
<path d="M245.214 253.168C244.83 252.787 244.559 252.347 244.42 251.877C244.281 251.407 244.279 250.919 244.412 250.448C244.545 249.978 244.812 249.535 245.192 249.152C245.572 248.768 246.057 248.454 246.613 248.23L245.73 240.729L251.536 239.206L252.59 249.811C253.017 250.552 253.074 251.388 252.753 252.16C252.431 252.932 251.752 253.586 250.844 254C249.936 254.413 248.863 254.557 247.826 254.404C246.789 254.25 245.862 253.811 245.219 253.168H245.214Z" fill="#FFB7B7"/>
<path d="M241.414 207.9C241.3 206.761 241.684 205.626 242.505 204.673C243.325 203.72 244.536 203.004 245.945 202.638C247.188 202.322 248.53 202.323 249.772 202.64C251.101 202.988 252.254 203.647 253.069 204.526C253.883 205.404 254.317 206.456 254.309 207.534L254.745 245.624L244.456 245.91L241.414 207.9Z" fill="#F2F2F2"/>
<path d="M216.9 311.548C216.9 311.548 211.573 310.43 210.687 310.037C209.801 309.644 206.121 315.749 208.844 316.69C211.567 317.631 223.106 320.26 223.106 320.26C223.106 320.26 232.371 321.524 232.263 319.52C232.155 317.515 220.837 311.694 220.837 311.694C220.837 311.694 219.91 309.059 216.9 311.548Z" fill="#090814"/>
</g>
<defs>
<clipPath id="clip0_30_451">
<rect width="430" height="308" rx="15" fill="white"/>
</clipPath>
</defs>
</svg>
