<svg width="500" height="350" viewBox="0 0 500 350" fill="none" xmlns="http://www.w3.org/2000/svg">
<g clip-path="url(#clip0_52_121)">
<mask id="path-1-inside-1_52_121" fill="white">
<path d="M0 0H500V350H0V0Z"/>
</mask>
<path d="M0 0H500V350H0V0Z" fill="#E6FFAD"/>
<path d="M174.813 118.777H32.998C14.8031 118.777 0 107.693 0 94.0684V33.1288C0 19.5044 14.803 8.42035 32.998 8.42035H174.813C193.008 8.42035 207.811 19.5044 207.811 33.1288V94.0684C207.811 107.693 193.008 118.777 174.813 118.777ZM32.998 10.172C16.0926 10.172 2.33934 20.4705 2.33934 33.1288V94.0684C2.33934 106.727 16.0926 117.025 32.998 117.025H174.813C191.719 117.025 205.472 106.727 205.472 94.0684V33.1288C205.472 20.4705 191.719 10.172 174.813 10.172H32.998Z" fill="#3F3D56"/>
<path d="M105.502 152.343C96.2381 152.343 88.7015 146.7 88.7015 139.763C88.7015 132.826 96.2381 127.183 105.502 127.183C114.766 127.183 122.303 132.826 122.303 139.763C122.303 146.7 114.766 152.343 105.502 152.343ZM105.502 128.935C97.5283 128.935 91.0409 133.792 91.0409 139.763C91.0409 145.734 97.5283 150.592 105.502 150.592C113.476 150.592 119.963 145.734 119.963 139.763C119.963 133.792 113.476 128.935 105.502 128.935Z" fill="#3F3D56"/>
<path d="M102.134 145.562C101.816 145.562 101.498 145.464 101.267 145.274C100.833 144.915 100.87 144.361 101.35 144.037L107.84 139.636L101.964 134.776C101.53 134.418 101.568 133.864 102.046 133.539C102.525 133.215 103.265 133.242 103.698 133.601L110.359 139.11C110.793 139.468 110.756 140.022 110.276 140.347L102.919 145.335C102.695 145.487 102.414 145.562 102.134 145.562Z" fill="#3F3D56"/>
<path d="M352.46 230.885L331.406 279.932L326.728 341.242L373.514 345.621L407.435 283.436L410.944 350L471.766 345.621C471.766 345.621 490.481 260.664 463.579 223.878L352.46 230.885Z" fill="black"/>
<path d="M399.247 63.5986L440.185 60.9711L447.203 68.8537C447.203 68.8537 486.972 87.2464 488.142 90.7498C489.311 94.2532 462.409 223.878 463.579 223.878C464.748 223.878 429.658 238.768 387.55 241.395C345.442 244.023 344.176 243.074 344.176 243.074L361.818 210.741L365.911 170.014L362.402 92.9394L393.984 75.4225L399.247 63.5986Z" fill="#5233DD"/>
<path d="M416.123 59.3572C435.814 59.3572 451.777 47.4044 451.777 32.6598C451.777 17.9152 435.814 5.9624 416.123 5.9624C396.432 5.9624 380.469 17.9152 380.469 32.6598C380.469 47.4044 396.432 59.3572 416.123 59.3572Z" fill="#FFB6B6"/>
<path d="M442.309 54.5955C444.273 54.8462 446.578 51.2818 448.781 47.8102C453.394 40.543 456.325 35.9232 456.549 29.3931C456.739 23.8275 454.674 25.2882 452.665 12.9146C452.003 8.8334 442.691 8.84126 440.796 6.90332C437.595 3.62984 428.265 3.38004 420.301 1.41358C405.383 -2.26966 412.878 2.35189 403.404 2.84485C403.164 2.85732 398.468 6.29662 395.845 6.47447C391.249 6.78606 392.229 3.16527 389.89 7.5445C387.248 12.4893 377.027 10.4303 379.511 12.2031C381.62 13.7084 381.702 14.5513 381.702 14.5513C381.702 14.5513 370.472 19.3485 374.684 19.8063C377.188 20.0785 368.67 14.7752 367.395 17.282C366.582 18.8806 381.495 32.5348 380.261 34.7989C378.97 37.1667 387.279 31.2955 384.94 23.4129C383.266 17.7713 387.55 22.4339 413.248 26.1557C416.375 26.6085 418.945 23.9644 421.597 22.6078C422.327 22.234 421.637 22.8301 424.186 27.4544C427.4 33.2867 428.125 33.6026 428.069 35.209C427.948 38.6864 424.461 39.7102 425.48 41.9943C426.306 43.8442 429.532 45.2763 431.953 44.9023C434.685 44.4801 435.153 41.9493 437.131 41.9943C438.825 42.0329 440.835 43.9434 441.014 45.8716C441.392 49.9338 433.36 51.0511 431.953 56.5341C431.159 59.6286 440.504 54.3651 442.309 54.5955Z" fill="black"/>
<path d="M349.174 69.6593C350.274 71.3297 352.541 72.4451 354.937 72.9433C357.334 73.4415 359.869 73.3934 362.348 73.2411C370.043 72.7684 377.629 71.3207 384.687 68.9781C387.594 68.0133 390.48 66.8587 392.583 65.0734C394.687 63.2881 395.89 60.7532 394.973 58.4736C379.942 62.9247 364.508 66.6115 348.811 69.5" fill="#3F3D56"/>
<path d="M341.646 59.0225C341.813 61.203 341.991 63.4281 343.003 65.4934C344.015 67.5586 346.025 69.4736 348.662 70.0695C350.516 70.4886 352.442 70.2212 354.291 69.9514C367.038 68.0899 380.021 66.1632 391.224 61.2016C393.408 60.2347 395.631 59.0431 396.53 57.1582C397.43 55.2708 396.814 53.0938 396.191 51.0661C395.696 49.4537 394.844 47.5371 392.848 47.1316C391.691 46.8966 390.539 47.2801 389.482 47.6497C374.308 52.9536 358.347 56.9268 341.949 59.4818" fill="#6C63FF"/>
<path d="M374.125 53.471L378.797 55.0016C381.703 55.9538 385.086 54.9028 386.23 52.6874C387.024 51.1501 388.009 49.6682 389.172 48.2687C384.432 50.4919 379.304 52.2516 373.961 53.4892" fill="#E6E6E6"/>
<path d="M344.097 60.7684L348.574 62.235C351.495 63.1923 354.886 62.1325 356.048 59.9082C356.82 58.4285 357.773 57.0018 358.894 55.6528C354.232 57.8389 349.191 59.5693 343.936 60.7863" fill="#E6E6E6"/>
<path d="M350.929 58.3408C360.818 61.5807 372.368 58.5597 377.416 51.4157C378.146 50.3831 378.923 49.3695 379.748 48.3774C370.669 52.6352 360.849 56.0054 350.616 58.3757" fill="#E6E6E6"/>
<path d="M343.682 57.7808C342.536 58.1036 342.123 59.2836 342.687 60.0967C343.251 60.9099 344.524 61.3427 345.747 61.3679C346.97 61.3931 348.158 61.0751 349.28 60.7088C351.546 59.9689 353.675 59.0168 355.797 58.0675L373.118 50.319C373.737 50.0421 374.41 49.7125 374.583 49.1882C374.831 48.4334 373.817 47.711 372.784 47.6369C371.75 47.5628 370.762 47.9351 369.853 48.3096C363.882 50.7673 358.305 53.8006 352.001 55.7347C349.24 56.5816 346.36 57.2097 343.424 57.6052" fill="#FF6884"/>
<path d="M360.973 51.629C359.777 51.8262 359.226 53.4104 359.705 54.6964C360.184 55.9823 361.423 56.8893 362.659 57.205C363.894 57.5208 365.133 57.3402 366.309 57.0757C368.687 56.5415 370.95 55.6742 373.205 54.8092L391.615 47.7489C392.273 47.4965 392.992 47.1817 393.226 46.4753C393.563 45.4582 392.618 44.1985 391.58 43.8565C390.542 43.5146 389.5 43.8182 388.537 44.1429C382.215 46.2733 376.227 49.3127 369.626 50.6216C366.736 51.1948 363.749 51.4294 360.732 51.3202" fill="#FF6884"/>
<path d="M393.486 45.6581C378.005 48.6798 363.066 53.1987 349.097 59.0853C347.943 59.5713 346.782 60.0713 345.504 60.3212C344.225 60.5711 342.795 60.5473 341.613 60.0234C339.753 59.1996 338.954 57.3104 339.234 55.6785C339.514 54.0466 340.657 52.6227 341.86 51.3083C345.764 47.0432 350.658 43.3056 356.511 40.7781C362.364 38.2506 369.211 36.9776 375.983 37.6156C382.755 38.2535 389.407 40.8887 393.81 45.1309" fill="#3F3D56"/>
<path d="M73.6199 86.8719C75.3718 89.5327 78.9822 91.3093 82.7996 92.1028C86.617 92.8964 90.656 92.8198 94.6045 92.5772C106.861 91.8242 118.944 89.5183 130.186 85.7869C134.817 84.2501 139.414 82.411 142.764 79.5672C146.115 76.7235 148.032 72.6859 146.57 69.0548C122.629 76.1448 98.0439 82.0171 73.0418 86.6181" fill="#3F3D56"/>
<path d="M61.6293 69.929C61.8942 73.4022 62.1782 76.9465 63.7905 80.2361C65.4027 83.5257 68.6044 86.5761 72.8041 87.5252C75.7582 88.1928 78.826 87.7669 81.7698 87.337C102.075 84.3721 122.755 81.303 140.6 73.4C144.077 71.8599 147.619 69.9618 149.051 66.9594C150.484 63.9532 149.504 60.4855 148.512 57.2557C147.722 54.6874 146.365 51.6345 143.185 50.9886C141.343 50.6144 139.508 51.2252 137.824 51.8139C113.655 60.2621 88.2303 66.5909 62.1114 70.6606" fill="#C0E960"/>
<path d="M113.363 61.0864L120.804 63.5244C125.433 65.0411 130.823 63.3671 132.645 59.8382C133.909 57.3895 135.478 55.0292 137.33 52.8C129.78 56.3411 121.613 59.144 113.102 61.1154" fill="#E6E6E6"/>
<path d="M65.5334 72.71L72.6635 75.046C77.3175 76.5709 82.719 74.8828 84.5683 71.3398C85.7985 68.983 87.3168 66.7103 89.1019 64.5616C81.6772 68.0438 73.6463 70.8 65.2768 72.7385" fill="#E6E6E6"/>
<path d="M76.4158 68.8432C92.1671 74.0039 110.564 69.1918 118.605 57.8127C119.767 56.1678 121.006 54.5532 122.319 52.9731C107.858 59.755 92.2168 65.1233 75.916 68.8988" fill="#E6E6E6"/>
<path d="M64.8713 67.9512C63.0471 68.4654 62.3889 70.3449 63.2873 71.6402C64.1857 72.9355 66.213 73.6248 68.1615 73.665C70.1099 73.7051 72.0019 73.1986 73.7886 72.6152C77.3976 71.4365 80.789 69.9201 84.1691 68.408L111.759 56.0658C112.745 55.6246 113.817 55.0997 114.092 54.2645C114.488 53.0622 112.873 51.9115 111.227 51.7935C109.581 51.6755 108.007 52.2685 106.558 52.865C97.0477 56.7798 88.1648 61.6114 78.1224 64.6921C73.7251 66.0411 69.1374 67.0416 64.4604 67.6716" fill="#FF6884"/>
<path d="M92.4139 58.1523C90.5092 58.4664 89.6305 60.9898 90.3935 63.0382C91.1566 65.0865 93.131 66.5312 95.0989 67.0341C97.0668 67.5371 99.0394 67.2495 100.914 66.8282C104.701 65.9772 108.305 64.5957 111.898 63.218L141.222 51.9719C142.27 51.57 143.415 51.0684 143.788 49.9432C144.324 48.3232 142.82 46.3166 141.167 45.772C139.513 45.2274 137.853 45.711 136.319 46.2281C126.249 49.6215 116.711 54.4628 106.197 56.5477C101.593 57.4607 96.8354 57.8344 92.0296 57.6605" fill="#FF6884"/>
<path d="M144.203 48.6416C119.543 53.4548 95.748 60.6526 73.4971 70.0291C71.6598 70.8033 69.8093 71.5997 67.7734 71.9978C65.7374 72.3958 63.4588 72.3578 61.5755 71.5235C58.6138 70.2113 57.341 67.202 57.787 64.6026C58.233 62.0032 60.0528 59.7351 61.9692 57.6415C68.1881 50.8479 75.9837 44.8944 85.3066 40.8685C94.6295 36.8425 105.535 34.8149 116.322 35.831C127.11 36.8472 137.705 41.0446 144.719 47.8018" fill="#3F3D56"/>
<path d="M394.769 61.4851C396.456 64.3835 397.129 67.3268 396.881 69.8746L415.283 96.7248L397.964 102.908L381.162 75.0053C378.5 73.4073 376.079 71.0346 374.391 68.1363C370.537 61.515 371.974 54.6586 377.601 52.8219C383.228 50.9853 390.914 54.8639 394.769 61.4851Z" fill="#FFB6B6"/>
<path d="M464.163 92.9394C464.163 92.9394 485.217 78.9259 498.084 90.3119C510.95 101.698 454.806 186.655 454.806 186.655L425.564 181.4L389.305 90.3119L412.698 80.6776L436.091 127.097L464.163 92.9394Z" fill="#6C63FF"/>
<path d="M343.709 64.8695C343.558 68.0292 344.371 70.9525 345.849 73.255L341.865 103.287L361.004 104.288L362.985 73.7163C364.68 71.4993 365.772 68.6272 365.924 65.4675C366.271 58.2493 361.579 52.2638 355.444 52.0987C349.31 51.9336 344.056 57.6512 343.709 64.8695Z" fill="#FFB6B6"/>
<path d="M372.929 173.517L366.496 88.1223L343.103 84.6189L337.255 126.659L340.92 156.35C342.38 168.178 357.504 176.289 372.929 173.517Z" fill="#6C63FF"/>
</g>
<path d="M500 350V349H0V350V351H500V350Z" fill="#7963D9" mask="url(#path-1-inside-1_52_121)"/>
<defs>
<clipPath id="clip0_52_121">
<path d="M0 0H500V350H0V0Z" fill="white"/>
</clipPath>
</defs>
</svg>
