<svg width="500" height="350" viewBox="0 0 500 350" fill="none" xmlns="http://www.w3.org/2000/svg">
<mask id="path-1-inside-1_59_123" fill="white">
<path d="M0.000612974 0H500.001V350H0.000612974V0Z"/>
</mask>
<path d="M0.000612974 0H500.001V350H0.000612974V0Z" fill="#E6FFAD"/>
<path d="M500.001 350V349H0.000612974V350V351H500.001V350Z" fill="#5233DD" mask="url(#path-1-inside-1_59_123)"/>
<path d="M78.4007 41.0231C91.4241 41.0231 101.982 34.0847 101.982 25.5259C101.982 16.967 91.4241 10.0287 78.4007 10.0287C65.3773 10.0287 54.8198 16.967 54.8198 25.5259C54.8198 34.0847 65.3773 41.0231 78.4007 41.0231Z" fill="#FF6584"/>
<path d="M401.311 81.5547L401.179 81.6392V81.5547L401.175 81.6418C399.368 82.7969 379.243 95.8459 371.436 109.084C368.844 107.189 367.011 106.034 367.011 106.034L366.924 106.089V106.034V106.091C365.451 107.032 345.418 120.024 345.418 130.319C345.418 140.26 353.781 144.182 364.544 144.683L363.763 154.486H365.945L366.186 144.731C366.46 144.735 366.736 144.738 367.013 144.738C374.968 144.738 381.91 143.075 385.658 138.799C389.457 139.784 393.47 140.366 397.547 140.523L396.354 155.483H399.682L400.05 140.599C400.469 140.606 400.888 140.61 401.309 140.61C419.506 140.61 434.259 134.916 434.259 118.607C434.259 102.297 401.311 81.5547 401.311 81.5547Z" fill="#F2F2F2"/>
<path d="M318.596 92.3515V83.7711H270.501V92.3515H248.172V58.41H226.701V45.2625H178.607V58.4117H156.277V111.693C153.002 109.455 149.53 107.345 145.878 105.375L145.773 105.43V105.375V105.431C144.003 106.373 119.926 119.365 119.926 129.66C119.926 139.6 129.977 143.523 142.913 144.024L141.975 153.827H144.596L144.886 144.072C145.217 144.076 145.549 144.079 145.88 144.079C149.384 144.105 152.879 143.835 156.279 143.276V156.092H340.067V92.3515H318.596Z" fill="#F2F2F2"/>
<path d="M101.982 173.948C151.906 173.948 192.376 171.496 192.376 168.472C192.376 165.447 151.906 162.996 101.982 162.996C52.059 162.996 11.5882 165.447 11.5882 168.472C11.5882 171.496 52.059 173.948 101.982 173.948Z" fill="#F2F2F2"/>
<path d="M204.523 107.535C204.523 134.503 180.129 143.917 150.037 143.917C119.945 143.917 95.5507 134.501 95.5507 107.535C95.5507 80.57 150.037 46.2607 150.037 46.2607C150.037 46.2607 204.523 80.5678 204.523 107.535Z" fill="#F2F2F2"/>
<path d="M148.05 139.794L148.608 117.225L171.832 89.3028L148.694 113.684L148.944 103.536L164.956 83.3354L149.017 100.851L149.468 82.5986L166.608 66.5163L149.539 79.7282L149.822 46.2607L148.05 90.5664L148.196 88.7386L130.77 71.2093L147.916 92.2469L146.293 112.631L146.244 112.09L126.156 93.6434L146.183 114.001L145.98 116.55L145.944 116.589L145.96 116.798L141.841 168.516H147.344L148.007 141.804L167.985 121.496L148.05 139.794Z" fill="#3F3D56"/>
<path d="M108.973 107.535C108.973 134.503 84.5784 143.917 54.4864 143.917C24.3944 143.917 0 134.501 0 107.535C0 80.57 54.4864 46.2607 54.4864 46.2607C54.4864 46.2607 108.973 80.5678 108.973 107.535Z" fill="#F2F2F2"/>
<path d="M52.502 139.794L53.0602 117.225L76.2831 89.3028L53.1451 113.684L53.3957 103.536L69.4014 83.3345L53.462 100.85L53.9135 82.5978L71.0516 66.5154L53.9871 79.7286L54.2689 46.2611L52.4967 90.5664L52.6426 88.7386L35.2168 71.2093L52.3628 92.2469L50.7392 112.631L50.6908 112.09L30.6031 93.6447L50.6304 114.003L50.4276 116.551L50.3911 116.59L50.4077 116.799L46.2886 168.518H51.7913L52.4543 141.805L72.4325 121.497L52.502 139.794Z" fill="#3F3D56"/>
<path d="M182.372 84.1066C182.372 120.575 149.385 133.306 108.694 133.306C68.0025 133.306 35.0146 120.572 35.0146 84.1066C35.0146 47.641 119.038 0 119.038 0C119.038 0 182.372 47.6401 182.372 84.1066Z" fill="#6C63FF"/>
<path d="M106.009 127.729L106.764 97.2092L138.167 59.4522L106.882 92.4216L107.221 78.6969L128.865 51.3803L107.311 75.0653L107.921 50.3842L131.097 28.6368L108.017 46.5034L108.398 1.24918L106.005 61.1588L106.203 58.6871L82.6405 34.9846L105.826 63.4323L103.63 90.9969L103.564 90.2653L76.3998 65.3207L103.482 92.8499L103.207 96.2968L103.158 96.3487L103.181 96.6319L97.6119 166.565H105.05L105.942 130.445L132.958 102.984L106.009 127.729Z" fill="#3F3D56"/>
<path d="M229.995 274.094L193.362 295.696C176.936 290.963 166.029 282.907 160.494 271.62L197.128 250.02C197.358 264.213 208.544 272.107 229.995 274.094Z" fill="#E6E6E6"/>
<path d="M193.082 259.748L168.336 273.638L168.8 273.994L193.546 260.105L193.082 259.748Z" fill="#3F3D56"/>
<path d="M195.559 262.657L171.714 276.797L172.192 277.145L196.037 263.006L195.559 262.657Z" fill="#3F3D56"/>
<path d="M321.59 266.497L272.645 269.901C263.552 259.741 261.892 249.014 267.466 237.735L316.411 234.331C303.947 245.923 305.974 256.627 321.59 266.497Z" fill="#6C63FF"/>
<path d="M304.46 240.657L272.025 242.387L272.083 242.855L304.518 241.124L304.46 240.657Z" fill="white"/>
<path d="M303.88 243.969L271.952 246.249L272.029 246.715L303.957 244.435L303.88 243.969Z" fill="white"/>
<path d="M271.488 207.685L238.771 183.522C246.04 172.746 258.341 165.611 275.538 162.019L308.257 186.182C286.657 186.276 274.6 193.593 271.488 207.685Z" fill="#E6E6E6"/>
<path d="M272.435 167.163L271.89 167.466L292.913 183.784L293.457 183.481L272.435 167.163Z" fill="#3F3D56"/>
<path d="M267.619 169.373L267.087 169.686L288.508 185.41L289.04 185.097L267.619 169.373Z" fill="#3F3D56"/>
<path d="M374.691 350C443.897 350 500.001 347.486 500.001 344.384C500.001 341.283 443.897 338.768 374.691 338.768C305.484 338.768 249.381 341.283 249.381 344.384C249.381 347.486 305.484 350 374.691 350Z" fill="#F2F2F2"/>
<path d="M296.493 109.169L268.449 119.81L308.327 165.203L336.371 154.562L296.493 109.169Z" fill="#6C63FF"/>
<path d="M301.418 120.156L279.098 128.943L279.406 129.281L301.726 120.494L301.418 120.156Z" fill="#090814"/>
<path d="M305.016 123.414L282.695 132.202L283.004 132.54L305.324 123.752L305.016 123.414Z" fill="#090814"/>
<path d="M309.213 126.173L286.893 134.961L287.201 135.298L309.521 126.511L309.213 126.173Z" fill="#090814"/>
<path d="M312.811 129.72L290.491 138.507L290.799 138.845L313.119 130.057L312.811 129.72Z" fill="#090814"/>
<path d="M316.41 134.843L294.089 143.631L294.397 143.969L316.718 135.181L316.41 134.843Z" fill="#090814"/>
<path d="M398.205 166.681C398.205 166.681 413.641 161.801 424.625 163.62L398.205 116.791V111.983L435.601 170.459C444.949 182.041 456.772 208.44 436.618 210.559C413.753 212.963 372.596 221.979 372.596 221.979L363.447 169.685L398.205 166.681Z" fill="#2F2E41"/>
<path d="M308.115 151.053C308.115 151.053 283.42 130.618 277.021 137.829C270.622 145.04 305.774 157.175 305.774 157.175L308.115 151.053Z" fill="#ED9DA0"/>
<path d="M316.346 151.653L306.286 148.047C306.286 148.047 299.883 158.866 299.883 160.67C299.883 162.473 309.944 163.074 309.944 163.074L316.346 151.653Z" fill="#E6E6E6"/>
<path d="M356.559 107.942C369.692 107.942 380.339 100.946 380.339 92.3145C380.339 83.6834 369.692 76.6866 356.559 76.6866C343.426 76.6866 332.779 83.6834 332.779 92.3145C332.779 100.946 343.426 107.942 356.559 107.942Z" fill="#ED9DA0"/>
<path d="M373.052 88.5408C373.052 88.5408 383.113 108.376 390.43 109.578C397.746 110.781 362.077 119.797 362.077 119.797C362.077 119.797 351.101 102.967 345.614 98.759C340.126 94.5514 373.052 88.5408 373.052 88.5408Z" fill="#ED9DA0"/>
<path opacity="0.1" d="M430.216 204.549C449.93 202.475 439.049 177.169 429.814 165.225C430.65 165.644 431.401 166.134 432.045 166.68C441.194 174.494 459.483 208.155 436.62 210.559C413.756 212.963 372.597 221.979 372.597 221.979L371.353 214.865C383.112 212.384 412.286 206.434 430.216 204.549Z" fill="black"/>
<path d="M461.77 307.934C461.77 307.934 484.635 319.955 482.806 321.158C480.977 322.36 461.77 341.592 445.307 343.397C428.845 345.202 421.528 345.201 421.528 343.397C421.528 341.594 426.102 337.385 434.332 335.583C442.563 333.782 443.482 321.758 442.564 319.354C441.646 316.95 461.77 307.934 461.77 307.934Z" fill="#090814"/>
<path d="M393.174 218.373L407.811 263.454C407.811 263.454 468.175 307.934 466.346 308.535C464.517 309.136 446.224 321.158 442.566 321.158C438.908 321.158 375.799 274.276 375.799 274.276L352.931 235.205L393.174 218.373Z" fill="#E6E6E6"/>
<path d="M407.807 203.948C407.807 203.948 400.491 224.382 380.369 238.209C360.248 252.036 351.101 280.284 351.101 280.284L330.98 336.785C330.98 336.785 295.311 333.779 297.139 327.769L316.346 277.881C316.346 277.881 338.297 208.757 350.187 203.949C362.077 199.14 407.807 203.948 407.807 203.948Z" fill="#E6E6E6"/>
<path d="M329.151 331.977C329.151 331.977 334.638 343.397 330.98 344.599C327.321 345.802 262.384 348.206 258.725 339.791C258.725 339.791 256.896 335.583 271.53 335.583C286.164 335.583 301.712 326.566 301.712 326.566L329.151 331.977Z" fill="#090814"/>
<path d="M356.589 117.392C356.589 117.392 380.369 101.764 386.772 102.966C393.174 104.168 393.174 110.179 393.174 110.179C393.174 110.179 413.295 111.983 411.466 155.26C409.637 198.538 427.929 203.345 421.527 205.751C415.125 208.156 341.955 218.974 339.212 208.155C336.469 197.335 337.383 155.861 344.702 142.637C352.021 129.414 361.163 120.997 356.589 117.392Z" fill="#090814"/>
<path d="M386.772 120.999C386.772 120.999 414.21 129.414 398.662 145.643C383.114 161.872 371.223 179.303 354.761 178.702C338.298 178.1 312.688 167.883 305.369 167.883C298.049 167.883 308.113 150.452 313.6 149.851C319.088 149.25 344.694 159.468 344.694 159.468C344.694 159.468 353.846 118.595 386.772 120.999Z" fill="#090814"/>
<path d="M370.277 94.0412C368.248 93.9614 366.268 94.4124 364.253 94.588C357.046 95.2167 349.548 91.7799 347.957 87.1174C347.829 86.4959 347.548 85.8925 347.123 85.331C346.014 84.1406 343.487 83.914 341.405 84.1877C339.323 84.4613 337.348 85.1026 335.227 85.175C331.953 85.2878 328.809 83.9628 327.064 82.1385C325.319 80.3142 324.825 78.069 325.061 75.9197L326.631 77.0024C327.268 76.1156 327.515 75.1289 327.341 74.1546C328.173 74.009 329.048 74.0061 329.882 74.1464C330.716 74.2866 331.481 74.5652 332.105 74.9555C333.489 75.0522 332.444 73.268 333.473 72.6515C333.973 72.4495 334.569 72.3762 335.147 72.4458C338.091 72.4645 340.474 70.9844 342.794 69.7928C346.814 67.7329 351.515 66.3235 356.518 65.6784C359.843 65.2523 363.379 65.1839 366.532 65.9974C369.122 66.6657 371.29 67.8827 373.294 69.1501C378.232 72.2702 382.603 75.9358 384.657 80.2301C386.326 83.7476 386.372 87.511 384.79 91.0457C383.962 92.8813 381.468 99.1686 377.817 99.315C373.233 99.5001 375.988 94.2651 370.277 94.0412Z" fill="#090814"/>
</svg>
