<svg width="434" height="327" viewBox="0 0 434 327" fill="none" xmlns="http://www.w3.org/2000/svg">
<g clip-path="url(#clip0_30_421)">
<rect width="434" height="327" rx="15" fill="black"/>
<path d="M434 163.5C434 253.798 337.939 327 219.445 327C213.186 327 206.997 326.798 200.877 326.395C183.661 325.273 167.025 322.595 151.213 318.558C102.544 306.126 61.6574 280.76 35.5887 247.819C16.1004 223.197 4.88942 194.346 4.88942 163.5C4.88942 73.2024 100.95 0 219.445 0C337.939 0 434 73.2024 434 163.5Z" fill="#090814"/>
<path opacity="0.2" d="M434 163.5C434 253.798 337.939 327 219.445 327C213.186 327 206.997 326.798 200.877 326.395C183.661 325.273 167.025 322.595 151.213 318.558C102.544 306.126 61.6574 280.76 35.5887 247.819C16.1004 223.197 4.88942 194.346 4.88942 163.5C4.88942 73.2024 100.95 0 219.445 0C337.939 0 434 73.2024 434 163.5Z" fill="black"/>
<path d="M215.993 233.853C254.592 233.853 285.882 210.009 285.882 180.595C285.882 151.182 254.592 127.337 215.993 127.337C177.395 127.337 146.105 151.182 146.105 180.595C146.105 210.009 177.395 233.853 215.993 233.853Z" fill="#5233DD"/>
<path d="M212.711 148.632C218.652 148.426 225.05 152.528 224.085 157.3C223.361 160.881 214.651 165.246 207.088 161.682C199.832 158.264 201.829 149.01 212.711 148.632Z" fill="white"/>
<path d="M183.061 154.086C185.656 153.907 186.836 156.22 185.49 158.079C184.624 159.275 177.151 162.485 176.288 159.832C175.594 157.697 180.747 154.246 183.061 154.086Z" fill="white"/>
<path d="M254.884 156.229C261.603 154.976 267.318 168.998 257.44 164.799C251.989 162.482 252.36 156.7 254.884 156.229Z" fill="white"/>
<path d="M42.7105 152.434C44.1301 152.265 46.0845 156.198 45.8567 156.805C45.1404 158.717 15.4886 167.938 10.6934 168.088C14.148 166.316 36.6216 154.251 38.2688 154.126C42.9554 153.77 40.5288 157.501 41.6001 157.793C44.4163 158.558 43.8898 154.23 42.8956 153.703C41.577 153.004 35.7664 154.843 42.7105 152.434Z" fill="#FF6363"/>
<path d="M148.756 104.483C145.409 105.354 128.705 111.281 124.511 112.945C112.453 117.729 99.1715 124.699 87.1273 129.869C76.8102 131.173 46.6637 129.61 44.5612 129.869C43.7039 129.974 35.4366 133.095 35.4928 133.676C42.6633 136.192 49.4268 139.503 56.5908 142.279C59.4098 143.372 62.1563 142.457 54.555 147.638C51.9811 149.393 47.5943 151.219 46.9671 151.587C46.4514 151.89 45.6583 151.76 45.8567 152.433C50.1817 156.028 48.539 159.252 53.8147 158.639C56.2504 158.356 57.4798 155.34 60.6623 158.921C62.2173 155.36 63.8126 151.754 64.7339 148.062C87.5312 136.221 81.6548 140.756 73.6172 156.382C88.3973 150.915 85.8774 147.118 87.4975 145.664L149.681 116.612C158.912 111.631 162.094 107.651 169.113 101.239C162.325 102.165 155.266 102.788 148.756 104.483ZM95.8256 128.176C101.065 125.648 106.432 123.281 111.742 120.843C121.202 127.969 97.6423 137.516 95.8256 128.176Z" fill="#D6D6E3"/>
<path d="M73.6172 156.382L64.1786 169.357C44.0319 177.251 24.7438 186.342 4.95623 194.743L4.03088 194.32C19.7949 186.613 37.201 180.76 52.7043 172.742C52.9862 172.596 53.2759 172.88 53.4446 173.024C55.301 172.008 55.3929 170.887 55.4804 170.768C56.5707 169.277 56.9544 167.815 57.7012 166.255C58.846 163.862 59.6073 161.337 60.6623 158.921C62.2173 155.36 63.8125 151.754 64.7339 148.062C87.5311 136.221 81.6547 140.756 73.6172 156.382Z" fill="#D6D6E3"/>
<path d="M95.8256 128.176C101.065 125.648 106.432 123.281 111.742 120.843C121.202 127.969 97.6423 137.516 95.8256 128.176Z" fill="#090814"/>
<path d="M8.39878e-05 149.129C0.000368225 148.849 -0.00020515 148.563 8.39878e-05 148.283C6.11442 146.094 27.8115 135.701 30.1665 135.026C30.8731 134.824 32.0435 134.352 32.2023 135.167C32.4744 136.563 3.15653 147.238 8.39878e-05 149.129Z" fill="#FFFEFF"/>
<path d="M98.6424 109.076C100.254 108.969 95.3333 111.251 92.7202 112.461C81.8236 117.506 70.4191 122.063 59.2225 126.705C71.6726 119.99 85.6284 115.119 98.6424 109.076Z" fill="#FFFEFF"/>
<path d="M82.7264 179.027C83.9743 178.998 81.8221 180.053 81.616 180.156C69.5648 186.153 56.1368 190.889 43.6766 196.374C56.0306 189.785 69.7576 184.865 82.7264 179.027Z" fill="#C8C8C8"/>
<path d="M114.558 144.052C114.791 144.025 115.042 144.019 115.114 144.193C102.468 150.097 89.4389 155.833 76.2489 161.117C80.6067 158.755 112.363 144.304 114.558 144.052Z" fill="#FFFEFF"/>
<path d="M328.22 73.8083C318.891 81.3229 307.292 89.0452 295.248 93.8702C272.963 102.797 261.21 99.0726 278.634 82.281C272.46 68.9019 285.206 55.6427 303.938 56.4732C301.518 56.6821 301.028 57.5509 299.082 58.2262C292.294 60.5813 287.846 60.0538 282.979 65.5303C282.248 66.3527 280.957 67.9623 280.934 68.9389C279.452 69.8478 279.471 71.9018 279.401 73.2239C279.058 79.6271 282.417 85.5011 287.963 90.1695C299.796 87.6656 320.202 74.941 325.919 66.9911C329.757 61.6553 327.875 59.0807 319.785 60.9531C319.631 60.8401 318.104 60.9638 318.763 59.7844C320.44 59.6909 326.693 57.0427 330.648 58.8105C335.429 60.9481 329.443 67.0926 327.197 69.3284C319.604 76.8873 301.4 88.3282 289.88 91.9224C285.197 93.3835 274.135 96.4521 276.078 89.293C276.698 87.0068 280.857 83.4412 279.017 83.3523C278.388 83.3219 273.447 89.9792 273.266 91.825C272.568 98.9331 286.336 94.3532 290.647 92.8963C303.873 88.4261 318.591 79.2399 327.709 70.6919C339.688 59.4598 338.279 52.9796 317.74 59.3949H316.462C316.463 59.2875 315.77 59.0265 315.695 59.0053C343.503 49.4191 345.338 59.1753 328.22 73.8083Z" fill="#FFFEFF"/>
<path d="M295.957 176.162C267.477 199.104 232.066 222.68 195.295 237.411C127.262 264.665 91.3807 253.293 144.573 202.029C125.726 161.183 159.094 124.802 216.281 127.337C208.894 127.975 212.941 126.529 207 128.591C186.279 135.781 172.698 134.171 157.839 150.89C155.608 153.401 151.666 158.315 151.596 161.296C148.981 164.157 147.13 170.342 146.914 174.378C145.869 193.927 156.122 211.86 173.056 226.112C209.18 218.468 271.48 179.621 288.934 155.35C300.649 139.06 294.907 131.2 270.207 136.916C269.736 136.571 265.074 136.949 267.085 133.348C272.206 133.063 291.298 124.978 303.371 130.375C317.968 136.901 299.693 155.66 292.836 162.486C269.654 185.563 214.078 220.491 178.908 231.464C164.611 235.925 130.838 245.293 136.77 223.437C138.665 216.457 151.36 205.571 145.744 205.3C143.824 205.207 128.74 225.532 128.187 231.167C126.056 252.868 168.089 238.885 181.249 234.437C221.629 220.79 266.562 192.745 294.397 166.648C330.971 132.357 326.669 112.573 263.964 132.159H260.062C260.066 131.831 257.949 131.034 257.721 130.97C342.617 101.703 348.22 131.489 295.957 176.162Z" fill="#FFFEFF"/>
<path d="M315.695 59.0052C315.77 59.0264 316.463 59.2874 316.462 59.3948C308.06 68.5507 294.308 74.0809 279.401 73.2239C279.471 71.9017 279.452 69.8477 280.934 68.9388C282.923 67.7191 285.144 68.966 290.519 66.0172C293.242 64.5234 297.825 60.7172 299.082 58.2261C301.028 57.5508 301.518 56.682 303.938 56.4731C310.799 56.7773 311.596 57.8384 315.695 59.0052Z" fill="#D6D6E3"/>
<path d="M295.248 93.87C307.292 89.045 318.891 81.3227 328.22 73.8081C328.656 86.878 311.968 97.6849 295.248 93.87Z" fill="#D6D6E3"/>
<path d="M317.74 59.3948C317.897 59.6415 318.433 59.8027 318.763 59.7843C318.104 60.9638 319.631 60.84 319.785 60.953C322.209 62.7288 324.334 64.7295 325.919 66.991C320.202 74.9409 299.796 87.6655 287.963 90.1694C282.417 85.5011 279.058 79.627 279.401 73.2239C294.308 74.0809 308.06 68.5507 316.462 59.3948L317.74 59.3948Z" fill="#D6D6E3"/>
<path d="M299.082 58.2261C297.825 60.7172 293.242 64.5233 290.519 66.0171C285.144 68.9659 282.923 67.7191 280.934 68.9388C280.957 67.9622 282.248 66.3525 282.979 65.5302C287.846 60.0537 292.295 60.5812 299.082 58.2261Z" fill="#D6D6E3"/>
<path d="M215.11 71.6638L215.749 75.4619C216.853 76.7878 225.518 75.8701 215.876 76.9228L214.854 80.8183L214.215 77.2149C208.388 75.569 208.832 77.0763 214.215 75.4619L215.11 71.6638Z" fill="#F0F0F0"/>
<path d="M169.092 55.0071L169.731 58.8052C170.836 60.131 179.501 59.2134 169.859 60.266L168.837 64.1616L168.198 60.5582C162.371 58.9122 162.815 60.4195 168.198 58.8052L169.092 55.0071Z" fill="#F0F0F0"/>
<path d="M325.551 210.179L326.19 213.977C327.295 215.303 335.959 214.385 326.318 215.438L325.295 219.333L324.656 215.73C318.829 214.084 319.273 215.591 324.656 213.977L325.551 210.179Z" fill="#F0F0F0"/>
<path d="M109.845 190.015L110.484 193.813C111.589 195.139 120.253 194.221 110.612 195.274L109.59 199.17L108.951 195.566C103.123 193.92 103.568 195.428 108.951 193.813L109.845 190.015Z" fill="#F0F0F0"/>
<path d="M363.422 122.511L364.698 130.095C366.904 132.743 384.205 130.91 364.953 133.012L362.912 140.791L361.636 133.595C350 130.309 350.887 133.319 361.636 130.095L363.422 122.511Z" fill="#F0F0F0"/>
<path d="M242.627 268.039L243.903 275.623C246.109 278.271 263.41 276.439 244.158 278.54L242.117 286.319L240.841 279.124C229.205 275.837 230.092 278.847 240.841 275.623L242.627 268.039Z" fill="#F0F0F0"/>
</g>
<defs>
<clipPath id="clip0_30_421">
<rect width="434" height="327" rx="15" fill="white"/>
</clipPath>
</defs>
</svg>
