<svg width="58" height="47" viewBox="0 0 58 47" fill="none" xmlns="http://www.w3.org/2000/svg">
<g clip-path="url(#clip0_70_159)">
<path d="M37.8934 37.6C44.2999 37.6 49.4934 31.2872 49.4934 23.5C49.4934 15.7128 44.2999 9.4 37.8934 9.4C31.8809 9.4 26.9367 14.9602 26.3514 22.0812C23.9815 20.7782 21.421 19.9996 18.7991 19.7946C20.2609 8.57645 28.2532 0 37.8934 0C48.5709 0 57.2268 10.5213 57.2268 23.5C57.2268 36.0053 49.1908 46.2292 39.0533 46.9584V47H26.3122V44.949C26.3122 42.2847 25.4083 39.694 23.7515 37.757C22.09 35.8145 19.8078 34.6946 17.4 34.6946C14.9922 34.6946 12.71 35.8145 11.0485 37.757C9.39179 39.694 8.48781 42.2847 8.48781 44.949V47H0V44.8989C0 39.4061 1.87537 34.1815 5.15563 30.3618C8.33095 26.6643 12.5712 24.5695 16.9854 24.4459C17.1234 24.442 17.2617 24.44 17.4 24.44C17.5071 24.44 17.6141 24.4412 17.7211 24.4435C22.1689 24.54 26.4466 26.6381 29.6444 30.3618C31.4158 32.4245 32.7775 34.8969 33.6554 37.6H37.8934Z" fill="#5233DD"/>
<path d="M20.9544 41.0363C21.897 42.0327 22.4266 43.3842 22.4266 44.7933V47H12.3733V44.7933C12.3733 43.3842 12.9029 42.0327 13.8455 41.0363C14.7882 40.0398 16.0668 39.48 17.4 39.48C18.7331 39.48 20.0117 40.0398 20.9544 41.0363Z" fill="#C0E960"/>
<path d="M44.8128 22.1527C43.415 22.1527 42.2819 20.7754 42.2819 19.0764V18.3072C42.2819 17.0331 41.4321 16 40.3837 16C39.3354 16 38.4856 17.0329 38.4856 18.3072V19.0764C38.4856 20.7754 37.3524 22.1527 35.9546 22.1527H35.3219C34.2736 22.1527 33.4237 23.1857 33.4237 24.46C33.4237 25.7343 34.2736 26.7672 35.3219 26.7672H35.9546C37.3524 26.7672 38.4856 28.1446 38.4856 29.8436V30.6128C38.4856 31.8871 39.3354 32.92 40.3837 32.92C41.4321 32.92 42.2819 31.8871 42.2819 30.6128V29.8436C42.2819 28.1446 43.415 26.7672 44.8128 26.7672H45.4456C46.4939 26.7672 47.3437 25.7343 47.3437 24.46C47.3437 23.1857 46.4939 22.1527 45.4456 22.1527H44.8128Z" fill="#5233DD"/>
<path d="M10.8268 3.76005C10.8268 5.8366 12.2117 7.51999 13.9201 7.51999H14.6933C15.9747 7.51999 17.0133 8.78255 17.0133 10.34C17.0133 11.8975 15.9747 13.16 14.6933 13.16H13.9201C12.2117 13.16 10.8268 14.8434 10.8268 16.9199V17.86C10.8268 19.4175 9.78808 20.68 8.50677 20.68C7.22548 20.68 6.18677 19.4175 6.18677 17.86V16.92C6.18677 14.8434 4.80184 13.16 3.09344 13.16H2.32C1.0387 13.16 0 11.8975 0 10.34C0 8.78255 1.0387 7.51999 2.32 7.51999H3.09345C4.80184 7.51999 6.18677 5.83659 6.18677 3.76V2.82C6.18677 1.26256 7.22548 0 8.50677 0C9.78808 0 10.8268 1.26256 10.8268 2.82V3.76005Z" fill="#5233DD"/>
</g>
<defs>
<clipPath id="clip0_70_159">
<rect width="58" height="47" fill="white"/>
</clipPath>
</defs>
</svg>
